<svg width="139" height="79" viewBox="0 0 139 79" fill="none" xmlns="http://www.w3.org/2000/svg">
<circle cx="22.5" cy="22.5" r="22.5" fill="#FA863E"/>
<circle cx="22.5" cy="22.5" r="13.5" fill="#FDFCFA"/>
<circle cx="116.5" cy="22.5" r="22.5" fill="#FA863E"/>
<circle cx="116.5" cy="22.5" r="13.5" fill="#FDFCFA"/>
<path d="M80.2422 54V67.6924C80.2422 70.6613 79.7618 72.6646 78.8218 73.7131C77.8818 74.7616 76.2918 75.2809 74.0718 75.2809C72.9277 75.319 71.7943 75.0468 70.7822 74.4917C69.9148 73.9944 69.2421 73.1974 68.8819 72.2391C68.4515 70.7668 68.2657 69.2294 68.332 67.6924V58.2771H64.9121V67.6924C64.9121 70.6613 64.4389 72.6681 63.4922 73.7131C62.5455 74.7581 60.9653 75.2809 58.752 75.2809C57.6077 75.3214 56.4732 75.0491 55.4619 74.4917C54.5918 73.9979 53.9186 73.1998 53.562 72.2391C53.1266 70.768 52.9407 69.2296 53.0122 67.6924V54.0208H50.0122V67.6924C49.9343 69.7112 50.2293 71.727 50.8819 73.6305C51.4438 75.0596 52.4748 76.236 53.792 76.9521C55.4214 77.7749 57.2216 78.1673 59.0322 78.0941C60.893 78.1839 62.74 77.727 64.3618 76.7757C65.3043 76.1915 66.0969 75.3798 66.6719 74.4091C67.2442 75.4738 68.0885 76.3536 69.1118 76.9521C70.7449 77.7746 72.548 78.1669 74.3618 78.0941C76.2225 78.1828 78.0697 77.7259 79.6919 76.7757C80.9686 75.9936 81.9576 74.7917 82.502 73.3603C83.0769 71.5325 83.3375 69.614 83.272 67.6924V54.0101L80.2422 54Z" fill="#FA863E"/>
</svg>
