<svg width="124" height="58" viewBox="0 0 124 58" fill="none" xmlns="http://www.w3.org/2000/svg">
<path d="M85 5H118.5" stroke="#FDFCFA" stroke-width="10" stroke-linecap="round"/>
<path d="M5 5H38.5" stroke="#FDFCFA" stroke-width="10" stroke-linecap="round"/>
<path d="M72.2422 33.5V47.1924C72.2422 50.1613 71.7618 52.1646 70.8218 53.2131C69.8818 54.2616 68.2918 54.7809 66.0718 54.7809C64.9277 54.819 63.7943 54.5468 62.7822 53.9917C61.9148 53.4944 61.2421 52.6974 60.8819 51.7391C60.4515 50.2668 60.2657 48.7294 60.332 47.1924V37.7771H56.9121V47.1924C56.9121 50.1613 56.4389 52.1681 55.4922 53.2131C54.5455 54.2581 52.9653 54.7809 50.752 54.7809C49.6077 54.8214 48.4732 54.5491 47.4619 53.9917C46.5918 53.4979 45.9186 52.6998 45.562 51.7391C45.1266 50.268 44.9407 48.7296 45.0122 47.1924V33.5208H42.0122V47.1924C41.9343 49.2112 42.2293 51.227 42.8819 53.1305C43.4438 54.5596 44.4748 55.736 45.792 56.4521C47.4214 57.2749 49.2216 57.6673 51.0322 57.5941C52.893 57.6839 54.74 57.227 56.3618 56.2757C57.3043 55.6915 58.0969 54.8798 58.6719 53.9091C59.2442 54.9738 60.0885 55.8536 61.1118 56.4521C62.7449 57.2746 64.548 57.6669 66.3618 57.5941C68.2225 57.6828 70.0697 57.2259 71.6919 56.2757C72.9686 55.4936 73.9576 54.2917 74.502 52.8603C75.0769 51.0325 75.3375 49.114 75.272 47.1924V33.5101L72.2422 33.5Z" fill="white"/>
</svg>
