<svg id="圖層_1" data-name="圖層 1" xmlns="http://www.w3.org/2000/svg" viewBox="0 0 60.1 97.2"><defs><style>.cls-1{fill:#fa863e;stroke:#fa863e;}</style></defs><path class="cls-1" d="M31.37,100c-11.95-.1-21.29-5.74-28.29-15.65a4.55,4.55,0,0,1-.75-3.33C3.75,69.94,4.21,58.74,5,47.57c.79-10.47,1.21-21,2.74-31.38A44.15,44.15,0,0,1,10.49,7c1.41-3.69,3-4.06,6.19-1.79a12,12,0,0,1,3.87,4.58c.44.91.87,1,1.78.59a22,22,0,0,1,19,0c1.19.53,1.62.17,2.12-.82a13,13,0,0,1,5-5.11c1.64-1,2.82-.82,3.86.91a34.55,34.55,0,0,1,4.17,13c1.75,11.56,2,23.24,2.82,34.88.62,9.16,1,18.34,2.1,27.46A6.19,6.19,0,0,1,60,85.31C53,94.89,43.66,99.89,31.37,100Z" transform="translate(-1.78 -3.34)"/></svg>