<svg width="124" height="59" viewBox="0 0 124 59" fill="none" xmlns="http://www.w3.org/2000/svg">
<path d="M85 5.5H118.5" stroke="#FA863E" stroke-width="10" stroke-linecap="round"/>
<path d="M5 5.5H38.5" stroke="#FA863E" stroke-width="10" stroke-linecap="round"/>
<path d="M72.2422 34V47.6924C72.2422 50.6613 71.7618 52.6646 70.8218 53.7131C69.8818 54.7616 68.2918 55.2809 66.0718 55.2809C64.9277 55.319 63.7943 55.0468 62.7822 54.4917C61.9148 53.9944 61.2421 53.1974 60.8819 52.2391C60.4515 50.7668 60.2657 49.2294 60.332 47.6924V38.2771H56.9121V47.6924C56.9121 50.6613 56.4389 52.6681 55.4922 53.7131C54.5455 54.7581 52.9653 55.2809 50.752 55.2809C49.6077 55.3214 48.4732 55.0491 47.4619 54.4917C46.5918 53.9979 45.9186 53.1998 45.562 52.2391C45.1266 50.768 44.9407 49.2296 45.0122 47.6924V34.0208H42.0122V47.6924C41.9343 49.7112 42.2293 51.727 42.8819 53.6305C43.4438 55.0596 44.4748 56.236 45.792 56.9521C47.4214 57.7749 49.2216 58.1673 51.0322 58.0941C52.893 58.1839 54.74 57.727 56.3618 56.7757C57.3043 56.1915 58.0969 55.3798 58.6719 54.4091C59.2442 55.4738 60.0885 56.3536 61.1118 56.9521C62.7449 57.7746 64.548 58.1669 66.3618 58.0941C68.2225 58.1828 70.0697 57.7259 71.6919 56.7757C72.9686 55.9936 73.9576 54.7917 74.502 53.3603C75.0769 51.5325 75.3375 49.614 75.272 47.6924V34.0101L72.2422 34Z" fill="#FA863E"/>
</svg>
