<svg width="217" height="352" viewBox="0 0 217 352" fill="none" xmlns="http://www.w3.org/2000/svg">
<path d="M68.1162 28.4906L67.5063 26.9496C63.7412 17.4365 57.0291 9.51216 48.4462 4.42402L48.4409 4.42089C44.2847 1.93394 41.8132 1.21838 39.8989 1.70431C37.9793 2.19159 36.0776 4.02438 33.4984 8.33638L33.4778 8.37083L33.4554 8.40412C32.2916 10.1326 31.3446 12.0099 30.6379 13.9901C29.6382 17.3655 28.5546 20.6923 27.4779 23.9977C24.8244 32.1439 22.2133 40.1601 21.0056 48.4549C21.0055 48.4552 21.0056 48.4549 21.0055 48.4552M68.1162 28.4906L0.220891 283.699C3.35749 260.64 6.36959 215.764 9.42576 170.232C12.6737 121.843 15.9714 72.7131 19.5212 48.2391L21.0055 48.4552M68.1162 28.4906L69.589 27.7305C95.5687 14.3223 121.014 14.8809 146.883 27.7407L148.05 28.3206L148.787 27.247C149.545 26.1441 150.242 24.9977 150.874 23.8134L150.894 23.7755L150.912 23.7366C155.34 14.1643 162.664 7.70585 171.671 2.68989L171.674 2.68809C173.565 1.62889 175.126 1.34433 176.378 1.57513C177.602 1.8007 178.772 2.56305 179.822 4.103L179.829 4.11407C182.961 8.62336 185.608 13.4761 187.722 18.586M68.1162 28.4906L187.722 18.586M21.0055 48.4552C17.5711 72.1344 14.3674 119.032 11.2102 166.046C11.1128 167.496 11.0156 168.945 10.9183 170.394C7.86543 215.877 4.85091 260.79 1.7072 283.901L1.70312 283.931L1.69784 283.961C1.39191 285.686 1.44128 287.458 1.84253 289.161C2.24377 290.864 2.9872 292.456 4.02071 293.834L4.03362 293.851L4.04603 293.868C32.8844 334.682 71.3974 354.065 120.005 349.961L120.006 349.961C158.277 346.753 188.32 327.647 211.301 295.772C214.588 291.167 215.373 286.732 214.585 281.007L214.585 281.005C211.87 261.08 209.227 217.959 206.623 174.947L206.442 171.962C203.896 129.89 201.386 88.425 198.884 69.0788C196.622 51.7429 194.16 34.6406 187.722 18.586M21.0055 48.4552L187.722 18.586M212.521 296.644C189.321 328.825 158.901 348.206 120.131 351.455C70.951 355.608 31.941 335.946 2.82099 294.734L212.521 296.644ZM212.521 296.644C216.071 291.672 216.901 286.834 216.071 280.803C213.302 260.479 210.601 215.852 207.935 171.797C205.392 129.781 202.88 88.2848 200.371 68.8864C198.111 51.5606 195.631 34.2763 189.111 18.0198L212.521 296.644Z" fill="#FA863E" stroke="#FA863E" stroke-width="3"/>
<path d="M131 74.5H164.5" stroke="#FDFCFA" stroke-width="10" stroke-linecap="round"/>
<path d="M51 74.5H84.5" stroke="#FDFCFA" stroke-width="10" stroke-linecap="round"/>
<path d="M118.242 103V116.692C118.242 119.661 117.762 121.665 116.822 122.713C115.882 123.762 114.292 124.281 112.072 124.281C110.928 124.319 109.794 124.047 108.782 123.492C107.915 122.994 107.242 122.197 106.882 121.239C106.452 119.767 106.266 118.229 106.332 116.692V107.277H102.912V116.692C102.912 119.661 102.439 121.668 101.492 122.713C100.546 123.758 98.9653 124.281 96.752 124.281C95.6077 124.321 94.4732 124.049 93.4619 123.492C92.5918 122.998 91.9186 122.2 91.562 121.239C91.1266 119.768 90.9407 118.23 91.0122 116.692V103.021H88.0122V116.692C87.9343 118.711 88.2293 120.727 88.8819 122.631C89.4438 124.06 90.4748 125.236 91.792 125.952C93.4214 126.775 95.2216 127.167 97.0322 127.094C98.893 127.184 100.74 126.727 102.362 125.776C103.304 125.192 104.097 124.38 104.672 123.409C105.244 124.474 106.088 125.354 107.112 125.952C108.745 126.775 110.548 127.167 112.362 127.094C114.222 127.183 116.07 126.726 117.692 125.776C118.969 124.994 119.958 123.792 120.502 122.36C121.077 120.533 121.338 118.614 121.272 116.692V103.01L118.242 103Z" fill="white"/>
</svg>
