<svg width="215" height="633" viewBox="0 0 215 633" fill="none" xmlns="http://www.w3.org/2000/svg">
<path d="M30.0144 185.133C27.5618 163.191 -13.2525 74.8906 4.42745 45.8525C15.7169 28.5095 32.4483 34.9437 40.1182 36.117C45.5788 36.9532 41.1541 16.4337 60.5628 8.50173C70.3982 4.48271 82.1432 5.54363 94.1067 17.376C101.795 23.8352 107.212 -1.02785 131.102 0.0330711C152.489 0.987903 156.208 28.2848 160.577 29.1585C167.248 30.4941 179.923 20.1594 191.156 25.2019C214.765 35.8112 225.48 69.043 198.645 126.358C164.77 198.582 173.058 195.917 176.141 306.191C179.573 392.874 198.645 632.5 198.645 632.5H23.056C23.056 632.5 27.2061 337.881 30.1892 261.382C30.7508 246.979 33.4156 215.656 30.0144 185.133Z" fill="#FA863E"/>
<path d="M100.678 90.7857C81.4692 90.7857 82.9483 103.754 67.1842 115.443C52.2564 126.514 54.8712 140.524 65.2121 146.022C79.934 153.892 92.4653 141.56 101.084 141.56C109.702 141.56 125.061 156.869 139.346 144.325C153.631 131.781 139.439 118.738 131.233 112.017C121.61 104.178 119.151 90.7857 100.678 90.7857Z" fill="#FAF9E0"/>
<path d="M28.7475 63.3827C18.5939 67.5328 29.2593 100.627 43.1012 93.5816C54.4968 87.7715 42.2837 57.8347 28.7475 63.3827Z" fill="#FAF9E0"/>
<path d="M72.5637 39.5743C56.1007 42.0269 67.4088 75.4648 80.1774 74.0793C92.9459 72.6939 91.1798 36.7972 72.5637 39.5743Z" fill="#FAF9E0"/>
<path d="M128.774 37.1716C113.072 35.3556 109.765 68.1381 123.426 71.2523C137.087 74.3664 144.956 39.0439 128.774 37.1716Z" fill="#FAF9E0"/>
<path d="M176.622 58.6086C160.826 53.0356 151.752 82.9848 161.688 89.1881C178.332 97.0452 186.962 62.2594 176.622 58.6086Z" fill="#FAF9E0"/>
</svg>
