<svg width="210" height="305" viewBox="0 0 210 305" fill="none" xmlns="http://www.w3.org/2000/svg">
<path d="M139.42 273.987C140.667 279.356 143.144 284.485 146.655 288.967C150.165 293.45 154.613 297.162 159.644 299.808C164.675 302.455 170.151 303.964 175.637 304.215C181.123 304.465 186.468 303.451 191.247 301.253C196.027 299.054 200.108 295.732 203.168 291.55C206.229 287.368 208.183 282.441 208.877 277.16C209.57 271.88 208.983 266.392 207.163 261.132C205.342 255.872 202.339 250.985 198.39 246.859L188.561 236.583C185.861 233.782 183.001 231.134 179.997 228.657C170.307 243.589 154.375 259.504 139.42 273.987Z" fill="#FA863E"/>
<path d="M57.2048 215.806C67.2847 223.644 77.8027 231.125 88.6229 238.227C88.8776 238.447 89.1327 238.667 89.4811 238.779C96.901 223.464 106.353 209.327 117.613 196.704C116.055 195.902 114.47 195.101 112.921 194.26C102.948 188.797 93.3321 182.647 84.1506 175.86C84.0754 175.806 84.005 175.745 83.9407 175.679C76.114 188.001 67.1855 204.232 57.2048 215.806Z" fill="#FA863E"/>
<path d="M78.5583 52.4838C79.6937 50.7952 80.6518 48.9877 81.4198 47.0854C83.053 43.3788 83.8772 39.3119 83.8444 35.1263C83.8116 30.9408 82.9223 26.7216 81.2287 22.7208C79.535 18.72 77.072 15.0187 73.9861 11.837C70.9002 8.65534 67.255 6.05851 63.2662 4.20055C59.2774 2.34259 55.0265 1.26221 50.7673 1.02256C46.5081 0.782919 42.327 1.38888 38.4728 2.80555C34.6186 4.22223 31.1697 6.42019 28.3317 9.26854C25.4937 12.1169 23.3245 15.5576 21.9528 19.3859L21.8199 19.7215C17.7967 29.8545 13.9295 40.1703 10.6038 50.8589C25.0341 55.7228 43.4816 66.0514 63.4202 79.5901C67.6213 70.0649 72.6863 60.9959 78.5583 52.4838Z" fill="#FA863E"/>
<path d="M54.1036 133.9C53.4792 129.792 53.2213 125.673 53.3334 121.592C35.922 116.692 18.2547 113.28 0.536133 111.396C0.551993 120.375 1.45725 129.416 3.23831 138.393C4.35274 143.916 5.88618 149.388 7.82621 154.762C21.0614 146.688 38.8274 136.675 54.3582 135.211L54.1036 133.9Z" fill="#FA863E"/>
<path d="M54.839 106.863C56.6735 97.4329 59.5351 88.3181 63.3766 79.6701C43.4381 66.1313 24.9906 55.8028 10.5603 50.9389C6.00048 65.1746 2.87481 79.9407 1.22556 95.0372C0.714481 100.381 0.433641 105.854 0.462515 111.451C18.1811 113.335 35.8482 116.746 53.2596 121.646C53.4096 116.65 53.9378 111.709 54.839 106.863Z" fill="#FAF9E0"/>
<path d="M39.4591 201.365L43.8479 205.16L47.731 208.327C50.3444 210.42 52.9312 212.515 55.6065 214.567C56.1158 215.007 56.6835 215.38 57.1862 215.767C67.135 204.26 75.9893 187.964 84.0062 175.664C81.7567 174.027 79.5473 172.283 77.3149 170.566L73.9027 167.854L71.2063 165.522C68.1407 162.862 65.4041 159.85 63.0653 156.563C58.6047 150.05 55.6355 142.751 54.3882 135.236C38.8574 136.701 21.0679 146.741 7.85619 154.788C11.3534 164.661 16.3109 174.098 22.558 182.77C27.4429 189.571 33.1211 195.818 39.4591 201.365Z" fill="#FAF9E0"/>
<path d="M89.5518 238.697C94.9646 242.215 100.456 245.612 105.893 248.889L122.41 258.758C124.982 260.294 127.42 261.833 129.543 263.313C131.444 264.598 133.277 265.984 135.033 267.467C136.206 268.503 137.257 269.666 138.162 270.931C138.722 271.798 139.129 272.745 139.361 273.722L139.42 273.987C154.328 259.558 170.307 243.589 179.997 228.657C178.919 227.724 177.783 226.86 176.664 226.035C172.88 223.2 168.903 220.643 164.771 218.386C158.272 214.898 151.614 211.754 144.829 208.969C138.93 206.407 133.493 204.22 128.263 201.762C124.66 200.117 121.166 198.376 117.707 196.595C106.437 209.226 96.9768 223.372 89.5518 238.697Z" fill="#FAF9E0"/>
</svg>
