<svg width="145" height="48" viewBox="0 0 145 48" fill="none" xmlns="http://www.w3.org/2000/svg">
<g clip-path="url(#clip0_710_628)">
<path d="M50.7742 16.5L34.2742 7.5C38.2742 5.66667 47.0742 2 50.2742 2C53.4742 2 51.9408 11.6667 50.7742 16.5Z" fill="#FDF2EB"/>
<path d="M53.469 15.8788C54.4482 11.3114 55.6226 1.22025 49.548 0.183593C45.2675 -0.547042 36.454 0.853022 34.0479 5.1718C32.2194 4.50619 30.2799 3.9477 28.4093 3.95152C26.5388 3.9477 24.5993 4.50619 22.7708 5.1718C20.3647 0.853022 11.555 -0.547042 7.2745 0.183593C1.19608 1.22025 2.37428 11.3114 3.35356 15.8788C-1.39365 21.6742 0.668191 30.0593 1.02395 37.5913C1.42178 45.9955 5.96625 48.635 14.0415 47.8737C18.5171 47.453 22.9812 45.3758 22.9927 40.4641C22.9927 39.0679 22.9659 26.9875 22.8626 26.999C24.7103 26.9875 26.5617 27.0067 28.4093 27.0373C30.257 27.0067 32.1084 26.9875 33.956 26.999C33.8528 26.9875 33.8222 39.0679 33.826 40.4641C33.8375 45.3758 38.3016 47.453 42.781 47.8737C50.8563 48.6312 55.3969 45.9955 55.7986 37.5913C56.1581 30.0554 58.2162 21.6742 53.4728 15.8788H53.469ZM42.6127 5.27126C44.5407 4.75866 46.5451 4.42969 48.542 4.50237C50.1409 4.56357 49.8808 9.39494 49.4868 12.5967C45.9369 10.4086 42.2034 8.48452 38.3513 6.88171C38.7377 6.70575 39.3612 6.32322 39.5678 6.23906C40.5509 5.82975 41.5837 5.54285 42.6127 5.27126ZM8.28056 4.50237C10.2506 4.31493 12.3124 4.80839 14.2098 5.27126C15.2465 5.52373 16.2563 5.86035 17.2547 6.23906C17.4613 6.31557 18.0848 6.70192 18.4712 6.88171C14.6114 8.48452 10.8703 10.4125 7.32041 12.6044C6.91492 9.42554 6.64333 4.65921 8.28056 4.50237ZM52.1339 26.3028C51.8547 30.6904 52.0077 35.5792 51.1432 39.8827C50.2595 44.2626 45.9178 44.2091 42.0925 43.314C40.5165 42.9429 38.271 42.0401 38.2672 41.1986C38.2633 38.7236 38.2557 36.2486 38.2519 33.7698C38.2404 29.7379 39.4874 23.8776 34.7708 22.7185C34.5298 22.6267 34.2659 22.5655 33.9599 22.5617C32.2997 22.5502 30.3832 22.4163 28.4132 22.3321C26.4431 22.4163 24.5267 22.5502 22.8665 22.5617C22.5604 22.5617 22.2965 22.6267 22.0555 22.7185C17.3389 23.8737 18.5859 29.7379 18.5745 33.7698C18.5706 36.2448 18.563 38.7198 18.5592 41.1986C18.5592 42.0401 16.3137 42.9429 14.7339 43.314C10.9085 44.2091 6.56682 44.2626 5.68317 39.8827C4.81483 35.5792 4.97167 30.6904 4.69242 26.3028C4.32136 20.4692 7.08324 17.8144 11.8343 15.0641C15.7705 12.7842 19.9516 10.8677 24.2551 9.39494C25.701 8.89765 27.0781 8.71786 28.4132 8.75994C29.7482 8.72169 31.1253 8.90148 32.5713 9.39494C36.8709 10.8677 41.0558 12.7842 44.9921 15.0641C49.7431 17.8144 52.505 20.4692 52.1339 26.3028Z" fill="#FA863E"/>
<path d="M12.4846 33.6704C11.3255 33.6704 10.3845 34.6114 10.3845 35.7705C10.3845 36.9295 11.3255 37.8706 12.4846 37.8706C13.6437 37.8706 14.5847 36.9295 14.5847 35.7705C14.5847 34.6114 13.6437 33.6704 12.4846 33.6704Z" fill="#483C34"/>
<path d="M44.3379 33.6704C43.1788 33.6704 42.2378 34.6114 42.2378 35.7705C42.2378 36.9295 43.1788 37.8706 44.3379 37.8706C45.497 37.8706 46.438 36.9295 46.438 35.7705C46.438 34.6114 45.497 33.6704 44.3379 33.6704Z" fill="#483C34"/>
<path fill-rule="evenodd" clip-rule="evenodd" d="M30.4215 36.3388C30.4915 35.7089 30.0375 35.1415 29.4076 35.0715C28.7777 35.0015 28.2103 35.4554 28.1403 36.0853C28.094 36.5022 27.9608 37.0306 27.7429 37.4892C27.5153 37.9681 27.267 38.224 27.0773 38.3188C26.7864 38.4643 26.4565 38.5887 26.1308 38.6792C26.0818 38.6928 26.0073 38.7091 25.9079 38.7309L25.9078 38.7309C25.8373 38.7464 25.7542 38.7646 25.6588 38.7866L25.6527 38.788L25.6527 38.788C25.5844 38.8037 25.4406 38.8367 25.3274 38.8781L25.3251 38.8789C25.3003 38.8879 25.1925 38.927 25.0765 39.0024L25.0744 39.0038C25.0312 39.0318 24.8379 39.1571 24.6985 39.4041C24.6151 39.5518 24.5286 39.7838 24.5543 40.0719C24.5807 40.3677 24.7139 40.5949 24.849 40.7434C25.0668 40.983 25.3214 41.0578 25.3741 41.0733L25.3773 41.0742C25.4664 41.1006 25.5402 41.1107 25.5757 41.115C25.6508 41.124 25.715 41.1246 25.7465 41.1246C25.9305 41.1246 26.1045 41.0813 26.2587 41.0042L26.3005 40.995L26.3005 40.995C26.4429 40.9635 26.6373 40.9206 26.7451 40.8906C27.2001 40.7643 27.6694 40.5888 28.1037 40.3717C28.142 40.3526 28.1796 40.3327 28.2166 40.3122C28.4756 40.5592 28.7664 40.7765 29.0784 40.951C29.7708 41.3381 30.6663 41.5637 31.5875 41.2907C31.5813 41.2926 31.5821 41.2924 31.6139 41.286L31.6139 41.286L31.7155 41.2658C31.8095 41.2472 31.9554 41.2178 32.1052 41.1748C32.2455 41.1345 32.4606 41.0629 32.6692 40.9305C32.8755 40.7997 33.2081 40.5224 33.3166 40.0339C33.3882 39.7118 33.3841 39.1489 32.904 38.7423C32.5243 38.4206 32.0945 38.4277 31.9369 38.4388C31.7375 38.4528 31.5497 38.5053 31.3959 38.5746C31.3333 38.6028 31.1858 38.6732 31.0418 38.8068C30.9972 38.8483 30.8925 38.95 30.8047 39.1132C30.6453 39.1244 30.4406 39.083 30.1985 38.9476C30.0368 38.8572 29.8845 38.7379 29.7524 38.6038C29.7744 38.5603 29.7955 38.5172 29.8159 38.4743C30.1552 37.7602 30.3502 36.9805 30.4215 36.3388ZM25.7465 38.8294L25.7467 38.8294L25.7515 38.8294L25.7465 38.8294Z" fill="#483C34"/>
</g>
<path d="M65.7683 17.56L67.0283 16.54C70.6683 19.66 71.1083 23.18 71.1083 26.94C71.1083 29.74 70.9083 32.32 70.0883 33.5C69.8083 33.88 69.4283 34.14 68.9483 34.22C68.2283 34.38 67.3883 34.4 66.4883 34.34C66.4883 33.74 66.3083 33.04 65.9683 32.5C66.9683 32.6 67.7083 32.58 68.1483 32.54C68.4483 32.5 68.6283 32.4 68.7683 32.18C69.2283 31.56 69.4083 29.4 69.4083 26.88C69.4083 23.34 68.9083 20.32 65.7683 17.56ZM69.3883 23.24L70.6883 24.06C69.7683 26.2 67.9683 28.56 66.3083 29.9C66.0683 29.42 65.6283 28.7 65.2683 28.3C66.8483 27.28 68.5483 25.16 69.3883 23.24ZM70.2283 16.54L71.5683 17.44C70.3283 19.6 68.0883 22.16 66.1883 23.64C65.9683 23.14 65.5083 22.36 65.1483 21.94C66.9483 20.8 69.1483 18.48 70.2283 16.54ZM72.5083 23.16H83.0483V34.56H81.2283V24.82H74.2283V34.66H72.5083V23.16ZM73.4683 27.48H82.0283V29.12H73.4683V27.48ZM73.5083 31.96H82.0683V33.62H73.5083V31.96ZM76.8283 23.94H78.5283V33.24H76.8283V23.94ZM71.5283 18.6H77.1883V20.34H71.5283V18.6ZM73.8883 16.12H75.7483V22.22H73.8883V16.12ZM79.4883 16.12H81.3683V22.22H79.4883V16.12ZM77.9283 18.56H83.8283V20.3H77.9283V18.56ZM96.0483 19.34C95.7883 21.4 95.3883 23.74 94.7283 25.96C93.5083 30.04 91.8683 32.32 89.8683 32.32C87.8883 32.32 86.0883 30.1 86.0883 26.76C86.0883 22.3 90.0083 18.44 95.0283 18.44C99.8283 18.44 102.868 21.8 102.868 26C102.868 30.2 100.188 33.08 95.3083 33.76L94.1283 31.9C94.8283 31.82 95.4083 31.72 95.9083 31.62C98.4683 31.02 100.768 29.14 100.768 25.92C100.768 22.74 98.6683 20.28 94.9883 20.28C90.6483 20.28 88.0883 23.82 88.0883 26.58C88.0883 28.88 89.0883 29.94 89.9283 29.94C90.8283 29.94 91.7683 28.62 92.7083 25.54C93.2883 23.64 93.7283 21.36 93.9283 19.28L96.0483 19.34ZM107.568 18.16H121.568V19.82H107.568V18.16ZM105.508 21.8H123.628V23.46H105.508V21.8ZM106.008 29.8H123.068V31.46H106.008V29.8ZM113.488 16.18H115.468V22.52H113.488V16.18ZM113.488 27.52H115.468V34.7H113.488V27.52ZM109.208 23.86L111.028 23.34C111.508 24.08 112.028 25.08 112.208 25.72L110.308 26.32C110.148 25.66 109.668 24.64 109.208 23.86ZM118.108 23.38L120.128 23.88C119.468 24.98 118.708 26.16 118.128 26.9L116.608 26.42C117.148 25.58 117.768 24.28 118.108 23.38ZM107.128 26.08H122.128V27.74H107.128V26.08ZM139.548 17.46C139.508 17.8 139.468 18.56 139.448 19.04C139.428 20.32 139.428 21.62 139.388 22.64C139.348 24.28 139.288 26.44 139.088 27.48C138.888 28.44 138.408 28.7 137.448 28.7C136.728 28.7 135.248 28.52 134.648 28.42L134.688 26.66C135.348 26.82 136.188 26.92 136.628 26.92C137.068 26.92 137.268 26.84 137.328 26.42C137.448 25.66 137.508 24.04 137.548 22.64C137.548 21.56 137.548 20.26 137.548 19.12C137.548 18.64 137.488 17.84 137.428 17.46H139.548ZM131.668 18.08C131.588 18.64 131.568 19.18 131.568 19.9C131.548 21.92 131.488 27.32 131.528 28.82C131.588 30.9 131.688 31.52 134.948 31.52C137.028 31.52 139.528 31.28 140.908 31.04L140.828 33.18C139.488 33.32 137.048 33.5 135.068 33.5C130.208 33.5 129.688 32.42 129.588 29.12C129.548 27.42 129.588 21.04 129.588 20C129.588 19.3 129.548 18.74 129.448 18.08H131.668ZM125.368 22.76C125.968 22.76 126.788 22.72 127.648 22.62C129.748 22.44 137.308 21.66 141.308 21.44C141.848 21.4 142.508 21.36 143.028 21.32V23.28C142.708 23.26 141.808 23.28 141.308 23.28C138.128 23.36 130.208 24.2 127.768 24.48C127.148 24.56 126.128 24.72 125.588 24.8L125.368 22.76Z" fill="#FA863E"/>
<defs>
<clipPath id="clip0_710_628">
<rect width="56.2741" height="48" fill="white" transform="translate(0.27417)"/>
</clipPath>
</defs>
</svg>
