<svg width="65" height="72" viewBox="0 0 65 72" fill="none" xmlns="http://www.w3.org/2000/svg">
<g clip-path="url(#clip0_710_629)">
<path d="M54.9113 16.5L38.4113 7.5C42.4113 5.66667 51.2113 2 54.4113 2C57.6113 2 56.0779 11.6667 54.9113 16.5Z" fill="#FDF2EB"/>
<path d="M57.606 15.8788C58.5853 11.3114 59.7596 1.22025 53.685 0.183593C49.4045 -0.547042 40.591 0.853022 38.1849 5.1718C36.3564 4.50619 34.4169 3.9477 32.5464 3.95152C30.6758 3.9477 28.7364 4.50619 26.9079 5.1718C24.5017 0.853022 15.692 -0.547042 11.4115 0.183593C5.33311 1.22025 6.5113 11.3114 7.49058 15.8788C2.74337 21.6742 4.80522 30.0593 5.16097 37.5913C5.5588 45.9955 10.1033 48.635 18.1785 47.8737C22.6541 47.453 27.1183 45.3758 27.1297 40.4641C27.1297 39.0679 27.103 26.9875 26.9997 26.999C28.8473 26.9875 30.6987 27.0067 32.5464 27.0373C34.394 27.0067 36.2454 26.9875 38.0931 26.999C37.9898 26.9875 37.9592 39.0679 37.963 40.4641C37.9745 45.3758 42.4386 47.453 46.9181 47.8737C54.9933 48.6312 59.5339 45.9955 59.9356 37.5913C60.2952 30.0554 62.3532 21.6742 57.6098 15.8788H57.606ZM46.7497 5.27126C48.6777 4.75866 50.6822 4.42969 52.679 4.50237C54.278 4.56357 54.0178 9.39494 53.6238 12.5967C50.0739 10.4086 46.3404 8.48452 42.4883 6.88171C42.8747 6.70575 43.4982 6.32322 43.7048 6.23906C44.6879 5.82975 45.7207 5.54285 46.7497 5.27126ZM12.4176 4.50237C14.3876 4.31493 16.4495 4.80839 18.3468 5.27126C19.3835 5.52373 20.3934 5.86035 21.3918 6.23906C21.5983 6.31557 22.2219 6.70192 22.6082 6.88171C18.7485 8.48452 15.0073 10.4125 11.4574 12.6044C11.0519 9.42554 10.7804 4.65921 12.4176 4.50237ZM56.2709 26.3028C55.9917 30.6904 56.1447 35.5792 55.2802 39.8827C54.3965 44.2626 50.0548 44.2091 46.2295 43.314C44.6535 42.9429 42.408 42.0401 42.4042 41.1986C42.4004 38.7236 42.3927 36.2486 42.3889 33.7698C42.3774 29.7379 43.6245 23.8776 38.9079 22.7185C38.6669 22.6267 38.4029 22.5655 38.0969 22.5617C36.4367 22.5502 34.5202 22.4163 32.5502 22.3321C30.5802 22.4163 28.6637 22.5502 27.0035 22.5617C26.6975 22.5617 26.4335 22.6267 26.1925 22.7185C21.4759 23.8737 22.723 29.7379 22.7115 33.7698C22.7077 36.2448 22.7 38.7198 22.6962 41.1986C22.6962 42.0401 20.4507 42.9429 18.8709 43.314C15.0456 44.2091 10.7038 44.2626 9.8202 39.8827C8.95185 35.5792 9.10869 30.6904 8.82944 26.3028C8.45839 20.4692 11.2203 17.8144 15.9713 15.0641C19.9075 12.7842 24.0886 10.8677 28.3921 9.39494C29.838 8.89765 31.2152 8.71786 32.5502 8.75994C33.8852 8.72169 35.2623 8.90148 36.7083 9.39494C41.008 10.8677 45.1928 12.7842 49.1291 15.0641C53.8801 17.8144 56.642 20.4692 56.2709 26.3028Z" fill="#FA863E"/>
<path d="M16.6216 33.6704C15.4626 33.6704 14.5215 34.6114 14.5215 35.7705C14.5215 36.9295 15.4626 37.8706 16.6216 37.8706C17.7807 37.8706 18.7217 36.9295 18.7217 35.7705C18.7217 34.6114 17.7807 33.6704 16.6216 33.6704Z" fill="#483C34"/>
<path d="M48.475 33.6704C47.316 33.6704 46.3749 34.6114 46.3749 35.7705C46.3749 36.9295 47.316 37.8706 48.475 37.8706C49.6341 37.8706 50.5751 36.9295 50.5751 35.7705C50.5751 34.6114 49.6341 33.6704 48.475 33.6704Z" fill="#483C34"/>
<path fill-rule="evenodd" clip-rule="evenodd" d="M34.5585 36.3388C34.6285 35.7089 34.1746 35.1415 33.5446 35.0715C32.9147 35.0015 32.3473 35.4554 32.2773 36.0853C32.231 36.5022 32.0978 37.0306 31.8799 37.4892C31.6523 37.9681 31.404 38.224 31.2143 38.3188C30.9234 38.4643 30.5935 38.5887 30.2679 38.6792C30.2189 38.6928 30.1443 38.7091 30.0449 38.7309L30.0449 38.7309C29.9743 38.7464 29.8912 38.7646 29.7958 38.7866L29.7897 38.788L29.7897 38.788C29.7214 38.8037 29.5776 38.8367 29.4645 38.8781L29.4621 38.8789C29.4373 38.8879 29.3296 38.927 29.2135 39.0024L29.2114 39.0038C29.1682 39.0318 28.975 39.1571 28.8355 39.4041C28.7521 39.5518 28.6656 39.7838 28.6913 40.0719C28.7177 40.3677 28.8509 40.5949 28.986 40.7434C29.2038 40.983 29.4584 41.0578 29.5112 41.0733L29.5143 41.0742C29.6034 41.1006 29.6772 41.1107 29.7127 41.115C29.7879 41.124 29.852 41.1246 29.8835 41.1246C30.0676 41.1246 30.2415 41.0813 30.3957 41.0042L30.4375 40.995L30.4375 40.995C30.5799 40.9635 30.7743 40.9206 30.8821 40.8906C31.3371 40.7643 31.8064 40.5888 32.2407 40.3717C32.279 40.3526 32.3166 40.3327 32.3536 40.3122C32.6126 40.5592 32.9034 40.7765 33.2155 40.951C33.9078 41.3381 34.8033 41.5637 35.7246 41.2907C35.7184 41.2926 35.7191 41.2924 35.751 41.286L35.751 41.286L35.8525 41.2658C35.9465 41.2472 36.0924 41.2178 36.2422 41.1748C36.3825 41.1345 36.5976 41.0629 36.8062 40.9305C37.0125 40.7997 37.3451 40.5224 37.4536 40.0339C37.5252 39.7118 37.5211 39.1489 37.0411 38.7423C36.6613 38.4206 36.2315 38.4277 36.0739 38.4388C35.8745 38.4528 35.6868 38.5053 35.5329 38.5746C35.4703 38.6028 35.3228 38.6732 35.1788 38.8068C35.1342 38.8483 35.0295 38.95 34.9417 39.1132C34.7823 39.1244 34.5776 39.083 34.3355 38.9476C34.1738 38.8572 34.0215 38.7379 33.8894 38.6038C33.9114 38.5603 33.9325 38.5172 33.9529 38.4743C34.2922 37.7602 34.4872 36.9805 34.5585 36.3388ZM29.8835 38.8294L29.8837 38.8294L29.8885 38.8294L29.8835 38.8294Z" fill="#483C34"/>
</g>
<path d="M1.52434 56.648L2.53234 55.832C5.44434 58.328 5.79634 61.144 5.79634 64.152C5.79634 66.392 5.63634 68.456 4.98034 69.4C4.75634 69.704 4.45234 69.912 4.06834 69.976C3.49234 70.104 2.82034 70.12 2.10034 70.072C2.10034 69.592 1.95634 69.032 1.68434 68.6C2.48434 68.68 3.07634 68.664 3.42834 68.632C3.66834 68.6 3.81234 68.52 3.92434 68.344C4.29234 67.848 4.43634 66.12 4.43634 64.104C4.43634 61.272 4.03634 58.856 1.52434 56.648ZM4.42034 61.192L5.46034 61.848C4.72434 63.56 3.28434 65.448 1.95634 66.52C1.76434 66.136 1.41234 65.56 1.12434 65.24C2.38834 64.424 3.74834 62.728 4.42034 61.192ZM5.09234 55.832L6.16434 56.552C5.17234 58.28 3.38034 60.328 1.86034 61.512C1.68434 61.112 1.31634 60.488 1.02834 60.152C2.46834 59.24 4.22834 57.384 5.09234 55.832ZM6.91634 61.128H15.3483V70.248H13.8923V62.456H8.29234V70.328H6.91634V61.128ZM7.68434 64.584H14.5323V65.896H7.68434V64.584ZM7.71634 68.168H14.5643V69.496H7.71634V68.168ZM10.3723 61.752H11.7323V69.192H10.3723V61.752ZM6.13234 57.48H10.6603V58.872H6.13234V57.48ZM8.02034 55.496H9.50834V60.376H8.02034V55.496ZM12.5003 55.496H14.0043V60.376H12.5003V55.496ZM11.2523 57.448H15.9723V58.84H11.2523V57.448ZM25.7483 58.072C25.5403 59.72 25.2203 61.592 24.6923 63.368C23.7163 66.632 22.4043 68.456 20.8043 68.456C19.2203 68.456 17.7803 66.68 17.7803 64.008C17.7803 60.44 20.9163 57.352 24.9323 57.352C28.7723 57.352 31.2043 60.04 31.2043 63.4C31.2043 66.76 29.0603 69.064 25.1563 69.608L24.2123 68.12C24.7723 68.056 25.2363 67.976 25.6363 67.896C27.6843 67.416 29.5243 65.912 29.5243 63.336C29.5243 60.792 27.8443 58.824 24.9003 58.824C21.4283 58.824 19.3803 61.656 19.3803 63.864C19.3803 65.704 20.1803 66.552 20.8523 66.552C21.5723 66.552 22.3243 65.496 23.0763 63.032C23.5403 61.512 23.8923 59.688 24.0523 58.024L25.7483 58.072ZM34.9643 57.128H46.1643V58.456H34.9643V57.128ZM33.3163 60.04H47.8123V61.368H33.3163V60.04ZM33.7163 66.44H47.3643V67.768H33.7163V66.44ZM39.7003 55.544H41.2843V60.616H39.7003V55.544ZM39.7003 64.616H41.2843V70.36H39.7003V64.616ZM36.2763 61.688L37.7323 61.272C38.1163 61.864 38.5323 62.664 38.6763 63.176L37.1563 63.656C37.0283 63.128 36.6443 62.312 36.2763 61.688ZM43.3963 61.304L45.0123 61.704C44.4843 62.584 43.8763 63.528 43.4123 64.12L42.1963 63.736C42.6283 63.064 43.1243 62.024 43.3963 61.304ZM34.6123 63.464H46.6123V64.792H34.6123V63.464ZM60.5483 56.568C60.5163 56.84 60.4843 57.448 60.4683 57.832C60.4523 58.856 60.4523 59.896 60.4203 60.712C60.3883 62.024 60.3403 63.752 60.1803 64.584C60.0203 65.352 59.6363 65.56 58.8683 65.56C58.2923 65.56 57.1083 65.416 56.6283 65.336L56.6603 63.928C57.1883 64.056 57.8603 64.136 58.2123 64.136C58.5643 64.136 58.7243 64.072 58.7723 63.736C58.8683 63.128 58.9163 61.832 58.9483 60.712C58.9483 59.848 58.9483 58.808 58.9483 57.896C58.9483 57.512 58.9003 56.872 58.8523 56.568H60.5483ZM54.2443 57.064C54.1803 57.512 54.1643 57.944 54.1643 58.52C54.1483 60.136 54.1003 64.456 54.1323 65.656C54.1803 67.32 54.2603 67.816 56.8683 67.816C58.5323 67.816 60.5323 67.624 61.6363 67.432L61.5723 69.144C60.5003 69.256 58.5483 69.4 56.9643 69.4C53.0763 69.4 52.6603 68.536 52.5803 65.896C52.5483 64.536 52.5803 59.432 52.5803 58.6C52.5803 58.04 52.5483 57.592 52.4683 57.064H54.2443ZM49.2043 60.808C49.6843 60.808 50.3403 60.776 51.0283 60.696C52.7083 60.552 58.7563 59.928 61.9563 59.752C62.3883 59.72 62.9163 59.688 63.3323 59.656V61.224C63.0763 61.208 62.3563 61.224 61.9563 61.224C59.4123 61.288 53.0763 61.96 51.1243 62.184C50.6283 62.248 49.8123 62.376 49.3803 62.44L49.2043 60.808Z" fill="#FA863E"/>
<defs>
<clipPath id="clip0_710_629">
<rect width="56.2741" height="48" fill="white" transform="translate(4.41125)"/>
</clipPath>
</defs>
</svg>
