<svg width="57" height="48" viewBox="0 0 57 48" fill="none" xmlns="http://www.w3.org/2000/svg">
<g clip-path="url(#clip0_710_609)">
<path d="M50.5 16.5L34 7.5C38 5.66667 46.8 2 50 2C53.2 2 51.6667 11.6667 50.5 16.5Z" fill="#FDF2EB"/>
<path d="M53.1948 15.8788C54.1741 11.3114 55.3484 1.22025 49.2738 0.183593C44.9933 -0.547042 36.1798 0.853022 33.7737 5.1718C31.9452 4.50619 30.0058 3.9477 28.1352 3.95152C26.2646 3.9477 24.3252 4.50619 22.4967 5.1718C20.0905 0.853022 11.2809 -0.547042 7.00033 0.183593C0.921914 1.22025 2.10011 11.3114 3.07939 15.8788C-1.66782 21.6742 0.394022 30.0593 0.749775 37.5913C1.14761 45.9955 5.69208 48.635 13.7673 47.8737C18.2429 47.453 22.7071 45.3758 22.7185 40.4641C22.7185 39.0679 22.6918 26.9875 22.5885 26.999C24.4361 26.9875 26.2875 27.0067 28.1352 27.0373C29.9828 27.0067 31.8343 26.9875 33.6819 26.999C33.5786 26.9875 33.548 39.0679 33.5518 40.4641C33.5633 45.3758 38.0274 47.453 42.5069 47.8737C50.5821 48.6312 55.1227 45.9955 55.5244 37.5913C55.884 30.0554 57.942 21.6742 53.1986 15.8788H53.1948ZM42.3386 5.27126C44.2665 4.75866 46.271 4.42969 48.2678 4.50237C49.8668 4.56357 49.6066 9.39494 49.2126 12.5967C45.6627 10.4086 41.9292 8.48452 38.0772 6.88171C38.4635 6.70575 39.087 6.32322 39.2936 6.23906C40.2767 5.82975 41.3095 5.54285 42.3386 5.27126ZM8.00639 4.50237C9.97643 4.31493 12.0383 4.80839 13.9356 5.27126C14.9723 5.52373 15.9822 5.86035 16.9806 6.23906C17.1871 6.31557 17.8107 6.70192 18.197 6.88171C14.3373 8.48452 10.5961 10.4125 7.04624 12.6044C6.64075 9.42554 6.36916 4.65921 8.00639 4.50237ZM51.8598 26.3028C51.5805 30.6904 51.7335 35.5792 50.869 39.8827C49.9853 44.2626 45.6436 44.2091 41.8183 43.314C40.2423 42.9429 37.9968 42.0401 37.993 41.1986C37.9892 38.7236 37.9815 36.2486 37.9777 33.7698C37.9662 29.7379 39.2133 23.8776 34.4967 22.7185C34.2557 22.6267 33.9917 22.5655 33.6857 22.5617C32.0255 22.5502 30.109 22.4163 28.139 22.3321C26.169 22.4163 24.2525 22.5502 22.5923 22.5617C22.2863 22.5617 22.0223 22.6267 21.7813 22.7185C17.0647 23.8737 18.3118 29.7379 18.3003 33.7698C18.2965 36.2448 18.2888 38.7198 18.285 41.1986C18.285 42.0401 16.0395 42.9429 14.4597 43.314C10.6344 44.2091 6.29265 44.2626 5.409 39.8827C4.54066 35.5792 4.6975 30.6904 4.41825 26.3028C4.04719 20.4692 6.80907 17.8144 11.5601 15.0641C15.4963 12.7842 19.6774 10.8677 23.9809 9.39494C25.4269 8.89765 26.804 8.71786 28.139 8.75994C29.474 8.72169 30.8511 8.90148 32.2971 9.39494C36.5968 10.8677 40.7817 12.7842 44.7179 15.0641C49.4689 17.8144 52.2308 20.4692 51.8598 26.3028Z" fill="#FA863E"/>
<path d="M12.2104 33.6704C11.0514 33.6704 10.1104 34.6114 10.1104 35.7705C10.1104 36.9295 11.0514 37.8706 12.2104 37.8706C13.3695 37.8706 14.3105 36.9295 14.3105 35.7705C14.3105 34.6114 13.3695 33.6704 12.2104 33.6704Z" fill="#483C34"/>
<path d="M44.0637 33.6704C42.9047 33.6704 41.9636 34.6114 41.9636 35.7705C41.9636 36.9295 42.9047 37.8706 44.0637 37.8706C45.2228 37.8706 46.1638 36.9295 46.1638 35.7705C46.1638 34.6114 45.2228 33.6704 44.0637 33.6704Z" fill="#483C34"/>
<path fill-rule="evenodd" clip-rule="evenodd" d="M30.1473 36.3388C30.2173 35.7089 29.7634 35.1415 29.1334 35.0715C28.5035 35.0015 27.9361 35.4554 27.8661 36.0853C27.8198 36.5022 27.6866 37.0306 27.4687 37.4892C27.2411 37.9681 26.9928 38.224 26.8031 38.3188C26.5122 38.4643 26.1824 38.5887 25.8567 38.6792C25.8077 38.6928 25.7331 38.7091 25.6337 38.7309L25.6336 38.731C25.5631 38.7464 25.48 38.7646 25.3846 38.7866L25.3785 38.788L25.3785 38.788C25.3102 38.8037 25.1664 38.8367 25.0533 38.8781L25.0509 38.8789C25.0261 38.8879 24.9184 38.927 24.8023 39.0024L24.8002 39.0038C24.757 39.0318 24.5638 39.1571 24.4243 39.4041C24.3409 39.5518 24.2544 39.7838 24.2801 40.0719C24.3065 40.3677 24.4397 40.5949 24.5748 40.7434C24.7926 40.983 25.0472 41.0578 25.1 41.0733L25.1031 41.0742C25.1922 41.1006 25.2661 41.1107 25.3015 41.115C25.3767 41.124 25.4409 41.1246 25.4723 41.1246C25.6564 41.1246 25.8303 41.0813 25.9845 41.0042L26.0263 40.995C26.1687 40.9635 26.3631 40.9206 26.4709 40.8906C26.9259 40.7643 27.3952 40.5888 27.8296 40.3717C27.8678 40.3526 27.9054 40.3327 27.9424 40.3122C28.2014 40.5592 28.4922 40.7765 28.8043 40.951C29.4966 41.3381 30.3921 41.5637 31.3134 41.2907C31.3072 41.2926 31.3079 41.2924 31.3397 41.286L31.3398 41.286L31.4413 41.2658C31.5353 41.2472 31.6812 41.2178 31.831 41.1748C31.9713 41.1345 32.1864 41.0629 32.3951 40.9305C32.6013 40.7997 32.9339 40.5224 33.0424 40.0339C33.114 39.7118 33.1099 39.1489 32.6299 38.7423C32.2501 38.4206 31.8203 38.4277 31.6627 38.4388C31.4633 38.4528 31.2756 38.5053 31.1217 38.5746C31.0591 38.6028 30.9116 38.6732 30.7677 38.8068C30.723 38.8483 30.6183 38.95 30.5305 39.1132C30.3711 39.1244 30.1664 39.083 29.9243 38.9476C29.7626 38.8572 29.6103 38.7379 29.4782 38.6038C29.5002 38.5603 29.5213 38.5172 29.5417 38.4743C29.881 37.7602 30.076 36.9805 30.1473 36.3388ZM25.4723 38.8294L25.4725 38.8294L25.4773 38.8294L25.4723 38.8294Z" fill="#483C34"/>
</g>
<defs>
<clipPath id="clip0_710_609">
<rect width="56.2741" height="48" fill="white"/>
</clipPath>
</defs>
</svg>
