<svg width="700" height="1000" viewBox="0 0 700 1000" fill="none" xmlns="http://www.w3.org/2000/svg">
<path d="M146.069 9.63467L24.4999 167.191C19.4273 173.765 24.1134 183.299 32.417 183.299H291.765C300.356 183.299 304.948 173.183 299.293 166.717L161.514 9.16072C157.366 4.41748 149.919 4.64603 146.069 9.63467Z" fill="#FA863E"/>
<path d="M148.714 68.4161L67.9748 165.113C62.5379 171.624 67.1679 181.522 75.6508 181.522H247.895C256.672 181.522 261.191 171.023 255.158 164.648L163.654 67.952C159.539 63.6037 152.551 63.8208 148.714 68.4161Z" fill="#FAF9E0"/>
<path d="M532.273 9.63467L410.703 167.191C405.63 173.765 410.317 183.299 418.62 183.299H677.969C686.559 183.299 691.151 173.183 685.496 166.717L547.717 9.16072C543.57 4.41748 536.122 4.64603 532.273 9.63467Z" fill="#FA863E"/>
<path d="M535.03 67.9534L450.818 164.967C445.198 171.441 449.797 181.522 458.37 181.522H638.022C646.892 181.522 651.371 170.832 645.15 164.509L549.71 67.4956C545.62 63.3377 538.853 63.5487 535.03 67.9534Z" fill="#FAF9E0"/>
<rect y="156.823" width="700" height="843.177" rx="30" fill="#FA863E"/>
</svg>
