<svg width="248" height="631" viewBox="0 0 248 631" fill="none" xmlns="http://www.w3.org/2000/svg">
<path d="M235.736 109.888C234.382 87.0015 228.422 43.2282 210.645 37.8389C193.042 32.4947 185.005 44.3836 185.005 44.3836C185.005 44.3836 180.638 7.26501 157.727 1.78531C129.41 -4.96587 120.767 19.7993 120.767 19.7993C120.767 19.7993 112.123 -4.96587 83.8004 1.78531C60.8891 7.23919 56.5288 44.3836 56.5288 44.3836C56.5288 44.3836 48.4853 32.4947 30.889 37.8389C13.1056 43.2282 7.14551 87.0015 5.79095 109.888C4.30739 135.105 0.340332 630.5 0.340332 630.5H247.34C247.34 630.5 237.226 135.105 235.736 109.888Z" fill="#FA863E"/>
<path d="M124.821 93.6191C88.3325 93.6191 54.7187 121.824 73.9258 141.268C93.1328 160.712 104.458 135.432 125.778 135.432C145.947 135.432 156.51 155.858 173.792 144.186C191.074 132.514 166.111 93.6191 124.821 93.6191Z" fill="#FAF9E0"/>
<path d="M35.6385 53.6743C25.8619 54.5658 23.4096 65.2768 24.6293 76.1567C25.8489 87.0367 31.9665 94.292 38.678 93.5697C45.3895 92.8474 50.9068 82.6897 50.2937 71.0809C49.6807 59.4722 43.5888 52.9455 35.6385 53.6743Z" fill="#FAF9E0"/>
<path d="M92.6901 56.5688C99.4071 55.8465 104.906 45.689 104.294 34.0867C103.681 22.4844 97.5766 15.951 89.6221 16.6733C79.8622 17.5648 77.4063 28.2822 78.6311 39.1622C79.8559 50.0421 85.973 57.2976 92.6901 56.5688Z" fill="#FAF9E0"/>
<path d="M152.687 56.5688C159.409 55.8465 164.9 45.689 164.295 34.0867C163.689 22.4844 157.573 15.951 149.626 16.6733C139.862 17.5648 137.406 28.2822 138.631 39.1622C139.855 50.0421 145.972 57.2976 152.687 56.5688Z" fill="#FAF9E0"/>
<path d="M215.294 71.0809C214.656 59.4722 208.578 52.9455 200.625 53.6743C190.86 54.5658 188.411 65.2768 189.629 76.1567C190.847 87.0367 196.957 94.292 203.66 93.5697C210.364 92.8474 215.906 82.6897 215.294 71.0809Z" fill="#FAF9E0"/>
</svg>
