<?xml version="1.0" encoding="utf-8"?>
<!-- Generator: Adobe Illustrator 24.3.0, SVG Export Plug-In . SVG Version: 6.00 Build 0)  -->
<svg version="1.1" id="圖層_1" xmlns="http://www.w3.org/2000/svg" xmlns:xlink="http://www.w3.org/1999/xlink" x="0px" y="0px"
	 viewBox="0 0 15 15" style="enable-background:new 0 0 15 15;" xml:space="preserve">
<style type="text/css">
	.st0{fill:#FA863E;}
</style>
<g>
	<path class="st0" d="M13,8.1c0,0,1.7,0.8,1,2.6c-0.8,1.8-2,2-3,1.9c-1-0.2-2.1-0.2-3,1.2c-1,1.4-2.7,0.4-3.3-0.4
		c-0.6-0.8-0.4-2.2,0.4-2.6c0.8-0.3,1.3-1,1.4-1.9c0-1,0.7-1.5,1.2-1.7c0.5-0.2,1.5,0,2.2,0.6C11,8.7,11.6,7.7,13,8.1L13,8.1z"/>
	<path class="st0" d="M7,3.4c0.4,1.2,1.5,1.9,2.4,1.5c0.9-0.3,1.3-1.6,0.9-2.8C9.9,1,8.8,0.3,7.9,0.6C6.9,1,6.5,2.2,7,3.4z"/>
	<path class="st0" d="M2.6,5.2C3.1,6.4,4.3,7,5.2,6.6C6,6.2,6.3,4.9,5.8,3.7C5.3,2.5,4.1,1.8,3.2,2.3C2.3,2.7,2,4,2.6,5.2z"/>
	<path class="st0" d="M0.9,9.4c0.5,1.1,1.4,1.7,2.1,1.3C3.8,10.4,4,9.3,3.5,8.2C3,7.2,2,6.6,1.3,6.9C0.6,7.2,0.4,8.4,0.9,9.4z"/>
	<path class="st0" d="M11.6,4.9c0.3,1,1.1,1.7,1.9,1.5c0.7-0.2,1.1-1.2,0.8-2.3c-0.3-1-1.1-1.7-1.9-1.5C11.6,2.9,11.3,3.9,11.6,4.9
		L11.6,4.9z"/>
</g>
</svg>
