<?xml version="1.0" encoding="utf-8"?>
<!-- Generator: Adobe Illustrator 24.3.0, SVG Export Plug-In . SVG Version: 6.00 Build 0)  -->
<svg version="1.1" id="圖層_1" xmlns="http://www.w3.org/2000/svg" xmlns:xlink="http://www.w3.org/1999/xlink" x="0px" y="0px"
	 viewBox="0 0 24 24" style="enable-background:new 0 0 24 24;" xml:space="preserve">
<style type="text/css">
	.st0{fill:#D9D9D9;filter:url(#Adobe_OpacityMaskFilter);}
	.st1{mask:url(#mask0_27_106_1_);}
	.st2{fill:#FA863E;}
</style>
<defs>
	<filter id="Adobe_OpacityMaskFilter" filterUnits="userSpaceOnUse" x="3" y="2" width="18" height="20">
		<feColorMatrix  type="matrix" values="1 0 0 0 0  0 1 0 0 0  0 0 1 0 0  0 0 0 1 0"/>
	</filter>
</defs>
<mask maskUnits="userSpaceOnUse" x="3" y="2" width="18" height="20" id="mask0_27_106_1_">
	<rect class="st0" width="24" height="24"/>
</mask>
<g class="st1">
	<path class="st2" d="M8,14c-0.3,0-0.5-0.1-0.7-0.3S7,13.3,7,13s0.1-0.5,0.3-0.7S7.7,12,8,12s0.5,0.1,0.7,0.3C8.9,12.5,9,12.7,9,13
		s-0.1,0.5-0.3,0.7C8.5,13.9,8.3,14,8,14z M12,14c-0.3,0-0.5-0.1-0.7-0.3S11,13.3,11,13s0.1-0.5,0.3-0.7S11.7,12,12,12
		s0.5,0.1,0.7,0.3S13,12.7,13,13s-0.1,0.5-0.3,0.7S12.3,14,12,14z M16,14c-0.3,0-0.5-0.1-0.7-0.3S15,13.3,15,13s0.1-0.5,0.3-0.7
		S15.7,12,16,12s0.5,0.1,0.7,0.3S17,12.7,17,13s-0.1,0.5-0.3,0.7S16.3,14,16,14z M5,22c-0.6,0-1-0.2-1.4-0.6C3.2,21,3,20.5,3,20V6
		c0-0.6,0.2-1,0.6-1.4C4,4.2,4.4,4,5,4h1V3c0-0.3,0.1-0.5,0.3-0.7C6.5,2.1,6.7,2,7,2s0.5,0.1,0.7,0.3C7.9,2.5,8,2.7,8,3v1h8V3
		c0-0.3,0.1-0.5,0.3-0.7C16.5,2.1,16.7,2,17,2s0.5,0.1,0.7,0.3C17.9,2.5,18,2.7,18,3v1h1c0.5,0,1,0.2,1.4,0.6C20.8,5,21,5.4,21,6v14
		c0,0.5-0.2,1-0.6,1.4C20,21.8,19.5,22,19,22H5z M5,20h14V10H5V20z M5,8h14V6H5V8z"/>
</g>
</svg>
