<svg width="29" height="23" viewBox="0 0 29 23" fill="none" xmlns="http://www.w3.org/2000/svg">
<path d="M18.217 22.5C17.7812 22.4145 17.2244 22.3533 16.696 22.195C15.2579 21.743 13.7132 21.7489 12.2785 22.2117C11.298 22.546 10.2364 22.5651 9.24433 22.2665C7.2027 21.6388 6.43259 19.5501 7.60769 17.7843C7.92307 17.3302 8.28259 16.908 8.68117 16.5237C9.68724 15.5346 10.4635 14.3393 10.9556 13.0214C11.2069 12.3446 11.5471 11.7037 11.9673 11.1152C13.2659 9.30215 15.6958 9.29447 17.0252 11.0871C17.3979 11.5793 17.6959 12.1231 17.9097 12.7012C18.4593 14.273 19.3859 15.6887 20.6096 16.8261C20.9359 17.1328 21.218 17.4827 21.4479 17.866C22.6049 19.8143 21.6021 21.9488 19.3599 22.3712C19.0243 22.435 18.6785 22.449 18.217 22.5Z" fill="#FA863E"/>
<path d="M15.6045 5.24101C15.7176 3.31058 16.4878 1.75398 18.2928 0.853195C19.9552 0.0251398 21.8246 0.725653 22.5908 2.4009C23.6129 4.6452 22.5574 7.58866 20.3358 8.68848C18.3121 9.68878 16.0763 8.46392 15.6932 6.13669C15.6444 5.84706 15.6341 5.5485 15.6045 5.24101Z" fill="#FA863E"/>
<path d="M7.99858 14.0421C8.02687 15.9419 6.6576 17.3123 4.74581 17.2995C2.22591 17.2816 -0.094731 14.8753 0.00297946 12.3822C0.081405 10.3905 1.75024 9.10312 3.87416 9.39786C6.05465 9.70024 7.96773 11.8539 7.99858 14.0421Z" fill="#FA863E"/>
<path d="M13.5166 5.39666C13.2813 6.09202 13.1308 6.83329 12.7927 7.47379C12.0213 8.91682 10.3037 9.42591 8.80715 8.74968C6.61509 7.75321 5.45161 4.97689 6.28215 2.72239C7.13712 0.401537 9.78043 -0.232583 11.6665 1.44649C12.8275 2.4838 13.3739 3.80817 13.5166 5.39666Z" fill="#FA863E"/>
<path d="M25.7689 9.36597C27.862 9.36597 29.2788 11.0247 28.9535 13.0839C28.7924 14.0862 28.3312 15.0171 27.6298 15.7557C26.9284 16.4943 26.0193 17.0065 25.0207 17.2255C22.578 17.7486 20.6006 15.8437 21.0557 13.4118C21.48 11.1446 23.555 9.36342 25.7689 9.36597Z" fill="#FA863E"/>
</svg>
