<svg width="196" height="115" viewBox="0 0 196 115" fill="none" xmlns="http://www.w3.org/2000/svg">
<path d="M75 115C37.7693 115 7.45923 85.0225 7.45923 48.1644C7.45923 32.3196 13.1556 16.9431 23.5202 4.89398L24.5811 5.78232C14.4451 17.5892 8.84661 32.6264 8.84661 48.1644C8.84661 84.2634 38.5202 113.627 75 113.627V115Z" fill="#FDF2EB"/>
<path d="M27.7639 0C27.7639 0 19.1622 2.8427 19.4233 12.0007C28.1556 8.96419 27.7639 0 27.7639 0Z" fill="#FDF2EB"/>
<path d="M26.7029 12.4531C26.7029 12.4531 19.5702 11.0802 16.1262 17.5732C23.4222 18.8492 26.7029 12.4531 26.7029 12.4531Z" fill="#FDF2EB"/>
<path d="M11.4744 6.96149C11.4744 6.96149 17.7584 10.5472 16.0773 17.6862C9.71166 13.9229 11.4744 6.96149 11.4744 6.96149Z" fill="#FDF2EB"/>
<path d="M23.0304 19.7212C23.0304 19.7212 15.914 18.3483 12.4537 24.8413C19.7497 26.1335 23.0304 19.7212 23.0304 19.7212Z" fill="#FDF2EB"/>
<path d="M7.80196 14.2457C7.80196 14.2457 14.086 17.8313 12.4048 24.9704C6.03917 21.207 7.80196 14.2457 7.80196 14.2457Z" fill="#FDF2EB"/>
<path d="M20.1741 27.7001C20.1741 27.7001 12.9761 26.7633 9.92383 33.4501C17.2851 34.29 20.1741 27.7001 20.1741 27.7001Z" fill="#FDF2EB"/>
<path d="M4.61919 23.1292C4.61919 23.1292 11.1154 26.3433 9.8749 33.5631C3.2971 30.1874 4.61919 23.1292 4.61919 23.1292Z" fill="#FDF2EB"/>
<path d="M17.6931 35.0652C17.6931 35.0652 10.4298 34.9521 8.17737 41.9296C15.5876 41.9296 17.6931 35.0652 17.6931 35.0652Z" fill="#FDF2EB"/>
<path d="M1.71382 32.2873C1.71382 32.2873 8.53646 34.7262 8.14473 42.0591C1.22416 39.4586 1.71382 32.2873 1.71382 32.2873Z" fill="#FDF2EB"/>
<path d="M16.2732 43.1735C16.2732 43.1735 9.09145 44.2395 8.03052 51.5078C15.3428 50.2964 16.2732 43.1735 16.2732 43.1735Z" fill="#FDF2EB"/>
<path d="M0.0653076 43.0605C0.0653076 43.0605 7.21438 44.3526 8.03049 51.6532C0.767158 50.2157 0.0653076 43.0605 0.0653076 43.0605Z" fill="#FDF2EB"/>
<path d="M16.061 51.3301C16.061 51.3301 9.12409 53.4299 9.14041 60.7627C16.1916 58.5015 16.061 51.3301 16.061 51.3301Z" fill="#FDF2EB"/>
<path d="M0 53.5591C0 53.5591 7.26333 53.8014 9.15669 60.892C1.76279 60.5205 0 53.5591 0 53.5591Z" fill="#FDF2EB"/>
<path d="M17.6116 59.438C17.6116 59.438 11.0827 62.5715 12.2416 69.8236C18.8521 66.5125 17.6116 59.438 17.6116 59.438Z" fill="#FDF2EB"/>
<path d="M2.08923 64.1062C2.08923 64.1062 9.28727 63.234 12.2742 69.9531C4.91295 70.7284 2.08923 64.1062 2.08923 64.1062Z" fill="#FDF2EB"/>
<path d="M18.9663 66.6904C18.9663 66.6904 13.1719 71.0191 15.7345 77.8997C21.5778 73.3772 18.9663 66.6904 18.9663 66.6904Z" fill="#FDF2EB"/>
<path d="M4.66809 74.2494C4.66809 74.2494 11.5723 72.0044 15.8161 78.0289C8.74861 80.2094 4.66809 74.2494 4.66809 74.2494Z" fill="#FDF2EB"/>
<path d="M22.3448 74.3462C22.3448 74.3462 17.0238 79.2402 20.2719 85.8139C25.6256 80.7423 22.3448 74.3462 22.3448 74.3462Z" fill="#FDF2EB"/>
<path d="M8.87915 83.2781C8.87915 83.2781 15.5059 80.3708 20.3536 85.9269C13.5309 88.7858 8.87915 83.2781 8.87915 83.2781Z" fill="#FDF2EB"/>
<path d="M26.6702 81.4692C26.6702 81.4692 21.9368 86.9123 25.9194 93.0984C30.6692 87.4615 26.6702 81.4692 26.6702 81.4692Z" fill="#FDF2EB"/>
<path d="M14.3145 91.8548C14.3145 91.8548 20.5821 88.2206 26.0174 93.2115C19.5702 96.8133 14.3145 91.8548 14.3145 91.8548Z" fill="#FDF2EB"/>
<path d="M32.6768 88.1882C32.6768 88.1882 28.5962 94.132 33.2643 99.8335C37.3285 93.6959 32.6768 88.1882 32.6768 88.1882Z" fill="#FDF2EB"/>
<path d="M21.5778 99.8819C21.5778 99.8819 27.3884 95.5856 33.3623 99.9304C27.3721 104.227 21.5778 99.8819 21.5778 99.8819Z" fill="#FDF2EB"/>
<path d="M38.9609 94.0027C38.9609 94.0027 36.1208 100.609 41.8009 105.309C44.592 98.509 38.9609 94.0027 38.9609 94.0027Z" fill="#FDF2EB"/>
<path d="M30.3591 107.603C30.3591 107.603 35.2231 102.256 41.9152 105.374C36.8716 110.736 30.3591 107.603 30.3591 107.603Z" fill="#FDF2EB"/>
<path d="M47.3341 98.9777C47.3341 98.9777 45.3101 105.874 51.5125 109.88C53.4712 102.806 47.3341 98.9777 47.3341 98.9777Z" fill="#FDF2EB"/>
<path d="M40.4135 113.498C40.4135 113.498 44.6082 107.619 51.6267 109.945C47.2524 115.856 40.4135 113.498 40.4135 113.498Z" fill="#FDF2EB"/>
<path d="M121 115V113.627C157.48 113.627 187.153 84.2634 187.153 48.1643C187.153 32.6425 181.571 17.5892 171.419 5.78226L172.48 4.89392C182.844 16.9431 188.541 32.3033 188.541 48.1643C188.541 85.0225 158.247 115 121 115Z" fill="#FDF2EB"/>
<path d="M168.236 0C168.236 0 176.838 2.8427 176.577 12.0007C167.828 8.96419 168.236 0 168.236 0Z" fill="#FDF2EB"/>
<path d="M169.297 12.4529C169.297 12.4529 176.43 11.08 179.874 17.573C172.578 18.8489 169.297 12.4529 169.297 12.4529Z" fill="#FDF2EB"/>
<path d="M184.526 6.96149C184.526 6.96149 178.242 10.5472 179.923 17.6862C186.288 13.9229 184.526 6.96149 184.526 6.96149Z" fill="#FDF2EB"/>
<path d="M172.97 19.7212C172.97 19.7212 180.086 18.3483 183.546 24.8413C176.25 26.1335 172.97 19.7212 172.97 19.7212Z" fill="#FDF2EB"/>
<path d="M188.198 14.2457C188.198 14.2457 181.914 17.8314 183.595 24.9705C189.961 21.2071 188.198 14.2457 188.198 14.2457Z" fill="#FDF2EB"/>
<path d="M175.826 27.7C175.826 27.7 183.024 26.7632 186.076 33.45C178.715 34.2899 175.826 27.7 175.826 27.7Z" fill="#FDF2EB"/>
<path d="M191.365 23.1293C191.365 23.1293 184.868 26.3435 186.109 33.5633C192.687 30.1876 191.365 23.1293 191.365 23.1293Z" fill="#FDF2EB"/>
<path d="M178.307 35.0652C178.307 35.0652 185.57 34.9522 187.823 41.9297C180.412 41.9297 178.307 35.0652 178.307 35.0652Z" fill="#FDF2EB"/>
<path d="M194.286 32.2872C194.286 32.2872 187.464 34.7261 187.855 42.059C194.776 39.4586 194.286 32.2872 194.286 32.2872Z" fill="#FDF2EB"/>
<path d="M179.727 43.1734C179.727 43.1734 186.909 44.2394 187.97 51.5077C180.657 50.2963 179.727 43.1734 179.727 43.1734Z" fill="#FDF2EB"/>
<path d="M195.935 43.0604C195.935 43.0604 188.802 44.3526 187.97 51.6531C195.233 50.2156 195.935 43.0604 195.935 43.0604Z" fill="#FDF2EB"/>
<path d="M179.939 51.33C179.939 51.33 186.876 53.4297 186.86 60.7626C179.808 58.5014 179.939 51.33 179.939 51.33Z" fill="#FDF2EB"/>
<path d="M196 53.5591C196 53.5591 188.737 53.8014 186.843 60.892C194.237 60.5205 196 53.5591 196 53.5591Z" fill="#FDF2EB"/>
<path d="M178.388 59.4381C178.388 59.4381 184.917 62.5715 183.758 69.8237C177.148 66.5126 178.388 59.4381 178.388 59.4381Z" fill="#FDF2EB"/>
<path d="M193.894 64.1063C193.894 64.1063 186.696 63.2341 183.709 69.9532C191.071 70.7285 193.894 64.1063 193.894 64.1063Z" fill="#FDF2EB"/>
<path d="M177.034 66.6905C177.034 66.6905 182.828 71.0191 180.265 77.8998C174.422 73.3773 177.034 66.6905 177.034 66.6905Z" fill="#FDF2EB"/>
<path d="M191.332 74.2496C191.332 74.2496 184.428 72.0045 180.184 78.0291C187.251 80.2095 191.332 74.2496 191.332 74.2496Z" fill="#FDF2EB"/>
<path d="M173.655 74.3463C173.655 74.3463 178.976 79.2402 175.728 85.814C170.374 80.7423 173.655 74.3463 173.655 74.3463Z" fill="#FDF2EB"/>
<path d="M187.104 83.2783C187.104 83.2783 180.478 80.371 175.63 85.9272C182.453 88.786 187.104 83.2783 187.104 83.2783Z" fill="#FDF2EB"/>
<path d="M169.313 81.4691C169.313 81.4691 174.047 86.9122 170.064 93.0983C165.314 87.4613 169.313 81.4691 169.313 81.4691Z" fill="#FDF2EB"/>
<path d="M181.669 91.8549C181.669 91.8549 175.402 88.2208 169.966 93.2116C176.413 96.8135 181.669 91.8549 181.669 91.8549Z" fill="#FDF2EB"/>
<path d="M163.323 88.188C163.323 88.188 167.404 94.1319 162.736 99.8334C158.671 93.6958 163.323 88.188 163.323 88.188Z" fill="#FDF2EB"/>
<path d="M174.422 99.8821C174.422 99.8821 168.611 95.5857 162.654 99.9305C168.644 104.227 174.422 99.8821 174.422 99.8821Z" fill="#FDF2EB"/>
<path d="M157.039 94.0029C157.039 94.0029 159.879 100.609 154.199 105.309C151.408 98.5092 157.039 94.0029 157.039 94.0029Z" fill="#FDF2EB"/>
<path d="M165.625 107.602C165.625 107.602 160.777 102.256 154.069 105.373C159.112 110.736 165.625 107.602 165.625 107.602Z" fill="#FDF2EB"/>
<path d="M148.65 98.9776C148.65 98.9776 150.674 105.874 144.471 109.88C142.513 102.806 148.65 98.9776 148.65 98.9776Z" fill="#FDF2EB"/>
<path d="M155.57 113.498C155.57 113.498 151.375 107.619 144.357 109.945C148.715 115.856 155.57 113.498 155.57 113.498Z" fill="#FDF2EB"/>
</svg>
