<svg width="58" height="48" viewBox="0 0 58 48" fill="none" xmlns="http://www.w3.org/2000/svg">
<g clip-path="url(#clip0_78_285)">
<path d="M51.3629 16.5L34.8629 7.5C38.8629 5.66667 47.6629 2 50.8629 2C54.0629 2 52.5296 11.6667 51.3629 16.5Z" fill="#FDF2EB"/>
<path d="M54.0577 15.8789C55.037 11.3115 56.2113 1.22028 50.1368 0.183623C45.8562 -0.547011 37.0427 0.853053 34.6366 5.17183C32.8081 4.50622 30.8687 3.94773 28.9981 3.95155C27.1275 3.94773 25.1881 4.50622 23.3596 5.17183C20.9535 0.853053 12.1438 -0.547011 7.86325 0.183623C1.78483 1.22028 2.96303 11.3115 3.9423 15.8789C-0.804906 21.6742 1.25694 30.0593 1.61269 37.5913C2.01052 45.9955 6.55499 48.635 14.6302 47.8738C19.1058 47.453 23.57 45.3758 23.5814 40.4641C23.5814 39.0679 23.5547 26.9876 23.4514 26.9991C25.299 26.9876 27.1505 27.0067 28.9981 27.0373C30.8457 27.0067 32.6972 26.9876 34.5448 26.9991C34.4415 26.9876 34.4109 39.0679 34.4147 40.4641C34.4262 45.3758 38.8903 47.453 43.3698 47.8738C51.445 48.6312 55.9857 45.9955 56.3873 37.5913C56.7469 30.0555 58.8049 21.6742 54.0615 15.8789H54.0577ZM43.2015 5.27129C45.1294 4.75869 47.1339 4.42972 49.1307 4.5024C50.7297 4.5636 50.4696 9.39497 50.0756 12.5968C46.5257 10.4087 42.7922 8.48455 38.9401 6.88174C39.3264 6.70578 39.95 6.32325 40.1565 6.23909C41.1396 5.82978 42.1725 5.54288 43.2015 5.27129ZM8.86931 4.5024C10.8393 4.31496 12.9012 4.80842 14.7985 5.27129C15.8352 5.52376 16.8451 5.86038 17.8435 6.23909C18.0501 6.3156 18.6736 6.70195 19.0599 6.88174C15.2002 8.48455 11.459 10.4125 7.90915 12.6044C7.50367 9.42557 7.23207 4.65924 8.86931 4.5024ZM52.7227 26.3028C52.4434 30.6905 52.5964 35.5792 51.7319 39.8827C50.8483 44.2627 46.5065 44.2091 42.6812 43.314C41.1052 42.9429 38.8597 42.0402 38.8559 41.1986C38.8521 38.7236 38.8444 36.2487 38.8406 33.7699C38.8291 29.738 40.0762 23.8776 35.3596 22.7185C35.1186 22.6267 34.8546 22.5655 34.5486 22.5617C32.8884 22.5502 30.9719 22.4163 29.0019 22.3322C27.0319 22.4163 25.1154 22.5502 23.4552 22.5617C23.1492 22.5617 22.8852 22.6267 22.6442 22.7185C17.9276 23.8738 19.1747 29.738 19.1632 33.7699C19.1594 36.2448 19.1517 38.7198 19.1479 41.1986C19.1479 42.0402 16.9025 42.9429 15.3226 43.314C11.4973 44.2091 7.15557 44.2627 6.27192 39.8827C5.40357 35.5792 5.56041 30.6905 5.28116 26.3028C4.91011 20.4692 7.67198 17.8145 12.423 15.0641C16.3593 12.7842 20.5403 10.8677 24.8438 9.39497C26.2898 8.89768 27.6669 8.71789 29.0019 8.75997C30.3369 8.72172 31.7141 8.90151 33.16 9.39497C37.4597 10.8677 41.6446 12.7842 45.5808 15.0641C50.3318 17.8145 53.0937 20.4692 52.7227 26.3028Z" fill="#FA863E"/>
<path d="M13.0734 33.6704C11.9143 33.6704 10.9733 34.6114 10.9733 35.7705C10.9733 36.9296 11.9143 37.8706 13.0734 37.8706C14.2324 37.8706 15.1735 36.9296 15.1735 35.7705C15.1735 34.6114 14.2324 33.6704 13.0734 33.6704Z" fill="#483C34"/>
<path d="M44.9266 33.6704C43.7676 33.6704 42.8265 34.6114 42.8265 35.7705C42.8265 36.9296 43.7676 37.8706 44.9266 37.8706C46.0857 37.8706 47.0267 36.9296 47.0267 35.7705C47.0267 34.6114 46.0857 33.6704 44.9266 33.6704Z" fill="#483C34"/>
<path fill-rule="evenodd" clip-rule="evenodd" d="M31.0102 36.3388C31.0802 35.7088 30.6263 35.1414 29.9964 35.0715C29.3664 35.0015 28.7991 35.4554 28.7291 36.0853C28.6827 36.5022 28.5495 37.0306 28.3316 37.4892C28.104 37.968 27.8557 38.2239 27.666 38.3188C27.3751 38.4642 27.0453 38.5887 26.7196 38.6792C26.6706 38.6928 26.596 38.7091 26.4966 38.7309L26.4966 38.7309C26.426 38.7464 26.3429 38.7646 26.2475 38.7865L26.2414 38.788L26.2414 38.788C26.1731 38.8036 26.0293 38.8367 25.9162 38.878L25.9139 38.8789C25.889 38.8879 25.7813 38.927 25.6653 39.0024L25.6631 39.0038C25.6199 39.0318 25.4267 39.157 25.2872 39.4041C25.2038 39.5517 25.1173 39.7838 25.143 40.0718C25.1694 40.3677 25.3026 40.5949 25.4377 40.7434C25.6556 40.983 25.9101 41.0578 25.9629 41.0733L25.966 41.0742C26.0551 41.1006 26.129 41.1107 26.1644 41.115C26.2396 41.124 26.3038 41.1246 26.3352 41.1246C26.5193 41.1246 26.6932 41.0812 26.8474 41.0042L26.8892 40.995L26.8893 40.9949C27.0316 40.9635 27.226 40.9206 27.3339 40.8906C27.7888 40.7642 28.2581 40.5888 28.6925 40.3716C28.7307 40.3525 28.7683 40.3327 28.8053 40.3121C29.0643 40.5592 29.3551 40.7765 29.6672 40.9509C30.3595 41.338 31.2551 41.5637 32.1763 41.2907C32.1701 41.2925 32.1708 41.2924 32.2027 41.286L32.2027 41.286L32.3042 41.2657C32.3982 41.2471 32.5441 41.2178 32.694 41.1748C32.8342 41.1345 33.0493 41.0629 33.258 40.9305C33.4642 40.7996 33.7968 40.5223 33.9054 40.0338C33.9769 39.7118 33.9728 39.1489 33.4928 38.7423C33.1131 38.4206 32.6832 38.4276 32.5256 38.4387C32.3262 38.4528 32.1385 38.5053 31.9846 38.5746C31.922 38.6028 31.7745 38.6731 31.6306 38.8068C31.5859 38.8483 31.4812 38.95 31.3934 39.1132C31.234 39.1243 31.0293 39.083 30.7873 38.9476C30.6256 38.8572 30.4732 38.7379 30.3411 38.6037C30.3631 38.5603 30.3843 38.5171 30.4046 38.4743C30.744 37.7602 30.9389 36.9805 31.0102 36.3388ZM26.3352 38.8294L26.3354 38.8294L26.3402 38.8294L26.3352 38.8294Z" fill="#483C34"/>
</g>
<defs>
<clipPath id="clip0_78_285">
<rect width="56.2741" height="48" fill="white" transform="translate(0.862915)"/>
</clipPath>
</defs>
</svg>
