<svg width="26" height="22" viewBox="0 0 26 22" fill="none" xmlns="http://www.w3.org/2000/svg">
<path d="M15.0534 21.5V15.2447H10.9681V21.467C10.7651 21.4794 10.5986 21.4979 10.4383 21.499C8.62825 21.499 6.81855 21.499 5.00919 21.499C4.11297 21.499 3.72829 21.1251 3.72626 20.229C3.71916 17.7919 3.71408 15.3549 3.73743 12.9158C3.75662 12.6549 3.87401 12.4115 4.06527 12.236C6.92343 9.81961 9.79986 7.42585 12.6631 5.01664C12.9179 4.80137 13.0803 4.78694 13.3442 5.0084C16.2054 7.41967 19.0828 9.8124 21.9389 12.2298C22.1385 12.4172 22.2592 12.6755 22.2759 12.9509C22.3013 15.3539 22.2942 17.7569 22.2891 20.161C22.2891 21.1282 21.9197 21.4928 20.9696 21.4938C19.1772 21.4938 17.3841 21.4938 15.5903 21.4938L15.0534 21.5Z" fill="#FA863E"/>
<path d="M18.1703 4.26988C18.1703 3.20484 18.1703 2.28194 18.1703 1.35905C18.1703 0.678209 18.2718 0.567999 18.9265 0.562849C19.7879 0.556669 20.6499 0.556669 21.5127 0.562849C22.1673 0.562849 22.2871 0.683359 22.2891 1.34669C22.2891 3.26767 22.3074 5.18968 22.28 7.11478C22.2729 7.59477 22.4241 7.90069 22.7875 8.19321C23.7009 8.92349 24.59 9.69498 25.4863 10.452C26.149 11.0124 26.1572 11.1298 25.5878 11.8209C25.4152 12.0317 25.2417 12.2422 25.0671 12.4523C24.6408 12.9673 24.4358 12.989 23.9334 12.5646C21.4778 10.4888 19.0239 8.41226 16.5718 6.33506C15.5071 5.43483 14.4352 4.5418 13.3837 3.62509C13.1056 3.38303 12.927 3.35419 12.6255 3.6117C9.14283 6.57952 5.65268 9.53773 2.15508 12.4863C1.53798 13.0075 1.37862 13.0013 0.875196 12.3833C0.672201 12.1341 0.45906 11.8879 0.25708 11.6335C-0.10425 11.1782 -0.094099 10.9712 0.347414 10.5952C1.84958 9.31662 3.35546 8.0418 4.86506 6.77076C7.05943 4.91673 9.25414 3.06098 11.4492 1.20352C12.5657 0.261054 13.4436 0.265172 14.5621 1.21794C15.7344 2.20675 16.9006 3.19351 18.1703 4.26988Z" fill="#FA863E"/>
</svg>
