<svg width="24" height="24" viewBox="0 0 24 24" fill="none" xmlns="http://www.w3.org/2000/svg">
<mask id="mask0_44_493" style="mask-type:alpha" maskUnits="userSpaceOnUse" x="0" y="0" width="24" height="24">
<rect width="24" height="24" fill="#D9D9D9"/>
</mask>
<g mask="url(#mask0_44_493)">
<path d="M14.4751 12L7.12511 4.65C6.87511 4.4 6.75428 4.10417 6.76261 3.7625C6.77094 3.42083 6.90011 3.125 7.15011 2.875C7.40011 2.625 7.69594 2.5 8.03761 2.5C8.37928 2.5 8.67511 2.625 8.92511 2.875L16.6001 10.575C16.8001 10.775 16.9501 11 17.0501 11.25C17.1501 11.5 17.2001 11.75 17.2001 12C17.2001 12.25 17.1501 12.5 17.0501 12.75C16.9501 13 16.8001 13.225 16.6001 13.425L8.90011 21.125C8.65011 21.375 8.35844 21.4958 8.02511 21.4875C7.69178 21.4792 7.40011 21.35 7.15011 21.1C6.90011 20.85 6.77511 20.5542 6.77511 20.2125C6.77511 19.8708 6.90011 19.575 7.15011 19.325L14.4751 12Z" fill="#483C34"/>
</g>
</svg>
