<svg width="24" height="24" viewBox="0 0 24 24" fill="none" xmlns="http://www.w3.org/2000/svg">
<mask id="mask0_111_493" style="mask-type:alpha" maskUnits="userSpaceOnUse" x="0" y="0" width="24" height="24">
<rect width="24" height="24" fill="#D9D9D9"/>
</mask>
<g mask="url(#mask0_111_493)">
<path d="M9.54995 12L16.9 19.35C17.15 19.6 17.2708 19.8917 17.2625 20.225C17.2541 20.5583 17.125 20.85 16.875 21.1C16.625 21.35 16.3333 21.475 16 21.475C15.6666 21.475 15.375 21.35 15.125 21.1L7.42495 13.425C7.22495 13.225 7.07495 13 6.97495 12.75C6.87495 12.5 6.82495 12.25 6.82495 12C6.82495 11.75 6.87495 11.5 6.97495 11.25C7.07495 11 7.22495 10.775 7.42495 10.575L15.125 2.87499C15.375 2.62499 15.6708 2.50415 16.0125 2.51249C16.3541 2.52082 16.65 2.64999 16.9 2.89999C17.15 3.14999 17.275 3.44165 17.275 3.77499C17.275 4.10832 17.15 4.39999 16.9 4.64999L9.54995 12Z" fill="#483C34"/>
</g>
</svg>
