<svg width="24" height="24" viewBox="0 0 24 24" fill="none" xmlns="http://www.w3.org/2000/svg">
<g clip-path="url(#clip0_764_315)">
<mask id="mask0_764_315" style="mask-type:alpha" maskUnits="userSpaceOnUse" x="0" y="0" width="28" height="24">
<rect width="27.4286" height="24" fill="#D9D9D9"/>
</mask>
<g mask="url(#mask0_764_315)">
<path d="M12.0045 6.87225C9.16613 6.87225 6.87672 9.16166 6.87672 12C6.87672 14.8383 9.16613 17.1277 12.0045 17.1277C14.8428 17.1277 17.1322 14.8383 17.1322 12C17.1322 9.16166 14.8428 6.87225 12.0045 6.87225ZM12.0045 15.3337C10.1703 15.3337 8.67076 13.8387 8.67076 12C8.67076 10.1613 10.1658 8.66629 12.0045 8.66629C13.8431 8.66629 15.3382 10.1613 15.3382 12C15.3382 13.8387 13.8387 15.3337 12.0045 15.3337ZM18.538 6.6625C18.538 7.32746 18.0025 7.85853 17.342 7.85853C16.677 7.85853 16.1459 7.32299 16.1459 6.6625C16.1459 6.00201 16.6815 5.46647 17.342 5.46647C18.0025 5.46647 18.538 6.00201 18.538 6.6625ZM21.9342 7.87638C21.8583 6.27424 21.4924 4.85507 20.3186 3.68582C19.1494 2.51657 17.7302 2.15062 16.1281 2.07029C14.4769 1.97657 9.52761 1.97657 7.87638 2.07029C6.2787 2.14616 4.85953 2.51211 3.68582 3.68136C2.51211 4.85061 2.15062 6.26978 2.07029 7.87192C1.97657 9.52315 1.97657 14.4724 2.07029 16.1236C2.14616 17.7258 2.51211 19.1449 3.68582 20.3142C4.85953 21.4834 6.27424 21.8494 7.87638 21.9297C9.52761 22.0234 14.4769 22.0234 16.1281 21.9297C17.7302 21.8538 19.1494 21.4879 20.3186 20.3142C21.4879 19.1449 21.8538 17.7258 21.9342 16.1236C22.0279 14.4724 22.0279 9.52761 21.9342 7.87638ZM19.801 17.8953C19.4529 18.7701 18.779 19.4439 17.8998 19.7965C16.5833 20.3186 13.4593 20.1981 12.0045 20.1981C10.5496 20.1981 7.42118 20.3142 6.10912 19.7965C5.23441 19.4484 4.56053 18.7745 4.20797 17.8953C3.68582 16.5788 3.80632 13.4549 3.80632 12C3.80632 10.5451 3.69028 7.41671 4.20797 6.10465C4.55606 5.22995 5.22995 4.55606 6.10912 4.2035C7.42564 3.68136 10.5496 3.80185 12.0045 3.80185C13.4593 3.80185 16.5878 3.68582 17.8998 4.2035C18.7745 4.5516 19.4484 5.22548 19.801 6.10465C20.3231 7.42118 20.2026 10.5451 20.2026 12C20.2026 13.4549 20.3231 16.5833 19.801 17.8953Z" fill="#483C34"/>
</g>
</g>
<defs>
<clipPath id="clip0_764_315">
<rect width="24" height="24" fill="white"/>
</clipPath>
</defs>
</svg>
