<svg width="23" height="31" viewBox="0 0 23 31" fill="none" xmlns="http://www.w3.org/2000/svg">
<path d="M2.60382 11.5305C2.60382 10.4276 2.53336 9.31768 2.60382 8.21482C2.8018 5.97131 3.82435 3.88391 5.47016 2.36354C7.11598 0.843178 9.26582 0 11.4965 0C13.7271 0 15.877 0.843178 17.5228 2.36354C19.1686 3.88391 20.1912 5.97131 20.3891 8.21482C20.4737 9.31768 20.3891 10.4276 20.3891 11.623C21.0163 11.623 21.5518 11.623 22.0803 11.623C22.7849 11.623 22.9963 11.8293 22.9963 12.5053C22.9963 17.7776 22.9963 23.0428 22.9963 28.3081C23.0153 28.6639 22.9604 29.0198 22.8351 29.3529C22.7097 29.686 22.5168 29.9889 22.2686 30.2422C22.0204 30.4955 21.7224 30.6936 21.3939 30.8237C21.0654 30.9538 20.7135 31.013 20.3609 30.9976H2.63905C2.28649 31.013 1.93464 30.9538 1.60611 30.8237C1.27758 30.6936 0.979639 30.4955 0.731439 30.2422C0.483238 29.9889 0.290268 29.686 0.164932 29.3529C0.0395952 29.0198 -0.0153346 28.6639 0.00367202 28.3081C0.00367202 23.0428 0.00367202 17.7776 0.00367202 12.5053C0.00367202 11.8293 0.222113 11.6301 0.919714 11.623H2.32901C2.42297 11.5998 2.51489 11.5689 2.60382 11.5305ZM16.5699 11.6016C16.6301 10.5257 16.6301 9.44727 16.5699 8.37136C16.4872 7.42885 16.1318 6.53172 15.5479 5.79163C14.9641 5.05153 14.1776 4.50115 13.2863 4.20898C12.4087 3.85364 11.4476 3.76399 10.5204 3.95099C9.59316 4.13799 8.73993 4.59354 8.06484 5.26203C6.13411 7.00524 6.35255 9.31056 6.4512 11.6016H16.5699ZM11.4683 25.832H12.4266C13.3215 25.832 13.4977 25.6043 13.3779 24.6793C13.2581 23.7544 13.1806 22.9219 13.0749 22.0396C13.0448 21.8755 13.0555 21.7065 13.1059 21.5475C13.1563 21.3886 13.2449 21.2448 13.3638 21.1289C13.8149 20.6438 14.0596 19.9994 14.0451 19.3341C14.0306 18.6688 13.7581 18.0358 13.2863 17.5713C12.8109 17.1153 12.1803 16.8611 11.5247 16.8611C10.869 16.8611 10.2384 17.1153 9.76304 17.5713C9.28273 18.0282 9.00008 18.6579 8.97634 19.3238C8.9526 19.9897 9.18968 20.6382 9.63621 21.1289C9.76456 21.2491 9.8604 21.4004 9.91466 21.5685C9.96891 21.7366 9.97979 21.9159 9.94625 22.0894C9.83351 22.9717 9.74895 23.854 9.63621 24.7291C9.52346 25.6043 9.71372 25.8462 10.6298 25.8533L11.4683 25.832Z" fill="#FA863E"/>
</svg>
