<svg width="33" height="25" viewBox="0 0 33 25" fill="none" xmlns="http://www.w3.org/2000/svg">
<path d="M25.0589 0.578747C25.2633 1.40841 25.4757 2.23473 25.6699 3.0655C26.5609 6.89435 27.4598 10.7188 28.3282 14.5554C28.5439 15.5071 29.043 15.8986 30.0639 15.9618C31.0531 16.0228 32.0254 16.3689 33 16.5896C32.9842 16.797 32.9672 17.0034 32.9514 17.2108C32.0717 17.3383 31.1943 17.4836 30.3112 17.5867C29.9171 17.6322 29.488 17.5102 29.1187 17.6145C28.8025 17.7043 28.554 18.0094 28.2706 18.219C28.484 18.4408 28.6557 18.7525 28.9176 18.8723C29.6404 19.2051 30.4309 19.3925 31.1288 19.7596C31.3953 19.9005 31.4822 20.3685 31.6505 20.688C31.349 20.8244 31.0283 21.1039 30.7471 21.0684C30.0515 20.9819 29.3253 20.8466 28.7031 20.5527C27.9126 20.1756 27.3706 20.2432 26.6862 20.8033C23.8769 23.116 20.3487 24.4187 16.6839 24.4963C13.0192 24.574 9.43705 23.4219 6.52879 21.2304C6.24195 21.0141 5.66491 20.9886 5.29563 21.1028C4.58194 21.3247 3.94612 21.7972 3.22904 21.9902C2.78524 22.1077 2.25109 21.8926 1.76099 21.826C1.99249 21.3979 2.13368 20.8743 2.47472 20.5627C2.95466 20.1256 3.60399 19.8805 4.13587 19.4857C4.42835 19.2638 4.61469 18.9133 4.84845 18.6194C4.45659 18.5839 4.05797 18.4818 3.67402 18.5251C2.70849 18.636 1.75426 18.8579 0.787601 18.9322C0.52561 18.9533 0.0479384 18.6671 0.00615542 18.4575C-0.0424032 18.2101 0.204896 17.7432 0.446559 17.6345C1.24721 17.274 2.08401 16.8991 2.94226 16.7804C3.97667 16.6373 4.48935 16.1426 4.82474 15.2275C6.17986 11.5262 6.5401 7.65527 6.94664 3.7876C7.05279 2.78158 7.29558 1.79109 7.47626 0.792836L8.05666 0.635343C9.02671 1.89758 10.0973 3.09876 10.9375 4.43864C11.7776 5.77852 12.6641 6.40411 14.4009 6.0647C15.9819 5.75635 17.6758 6.04251 19.3031 5.89166C20.0054 5.80157 20.6526 5.47039 21.1302 4.95667C22.3622 3.53693 23.4486 1.99405 24.5926 0.5L25.0589 0.578747Z" fill="#FA863E"/>
</svg>
