<svg width="23" height="27" viewBox="0 0 23 27" fill="none" xmlns="http://www.w3.org/2000/svg">
<path d="M11.5335 0C13.215 0.0124709 14.8234 0.682078 16.0087 1.86305C17.1939 3.04403 17.86 4.64076 17.8619 6.30563C17.8619 9.77373 14.9631 12.626 11.4656 12.5997C10.6302 12.5953 9.80384 12.428 9.03375 12.1074C8.26367 11.7868 7.56493 11.3192 6.97738 10.7312C5.79076 9.54376 5.12916 7.93822 5.13817 6.26781C5.14717 4.5974 5.82602 2.99895 7.02537 1.82411C8.22472 0.649258 9.84634 -0.005789 11.5335 0.00313024V0Z" fill="#FA863E"/>
<path d="M11.4645 27H1.2745C0.326617 27 -0.0183586 26.6795 0.000747738 25.7389C0.0304687 24.0952 -0.0353357 22.4379 0.166342 20.8131C0.613217 17.2084 3.9048 13.9021 7.55516 13.5858C10.1769 13.3583 12.8137 13.3583 15.4354 13.5858C19.1229 13.9074 22.3987 17.1958 22.8466 20.8468C23.0589 22.5577 22.9846 24.3044 22.9973 26.0342C22.9973 26.6921 22.5727 26.9989 21.8085 27C18.3615 27 14.9136 27 11.4645 27Z" fill="#FA863E"/>
</svg>
