<?xml version="1.0" encoding="utf-8"?>
<!-- Generator: Adobe Illustrator 24.3.0, SVG Export Plug-In . SVG Version: 6.00 Build 0)  -->
<svg version="1.1" id="圖層_1" xmlns="http://www.w3.org/2000/svg" xmlns:xlink="http://www.w3.org/1999/xlink" x="0px" y="0px"
	 viewBox="0 0 15 15" style="enable-background:new 0 0 15 15;" xml:space="preserve">
<style type="text/css">
	.st0{fill:#D9D9D9;filter:url(#Adobe_OpacityMaskFilter);}
	.st1{mask:url(#mask0_27_78_1_);}
	.st2{fill:#FA863E;}
</style>
<defs>
	<filter id="Adobe_OpacityMaskFilter" filterUnits="userSpaceOnUse" x="1.9" y="3.9" width="11.1" height="6.6">
		<feColorMatrix  type="matrix" values="1 0 0 0 0  0 1 0 0 0  0 0 1 0 0  0 0 0 1 0"/>
	</filter>
</defs>
<mask maskUnits="userSpaceOnUse" x="1.9" y="3.9" width="11.1" height="6.6" id="mask0_27_78_1_">
	<rect x="-4.5" y="-4.5" class="st0" width="24" height="24"/>
</mask>
<g class="st1">
	<path class="st2" d="M7.5,10.4c-0.1,0-0.3,0-0.4-0.1c-0.1,0-0.2-0.1-0.3-0.2L2.2,5.6C2,5.4,1.9,5.2,1.9,4.9c0-0.3,0.1-0.5,0.3-0.7
		C2.4,4,2.6,3.9,2.9,3.9S3.4,4,3.6,4.2l3.9,3.9l3.9-3.9c0.2-0.2,0.4-0.3,0.7-0.3c0.3,0,0.5,0.1,0.7,0.3c0.2,0.2,0.3,0.4,0.3,0.7
		c0,0.3-0.1,0.5-0.3,0.7l-4.6,4.6c-0.1,0.1-0.2,0.2-0.3,0.2C7.8,10.4,7.6,10.4,7.5,10.4z"/>
</g>
</svg>
