<svg width="270" height="172" viewBox="0 0 270 172" fill="none" xmlns="http://www.w3.org/2000/svg">
<g clip-path="url(#clip0_2_366)">
<path d="M166.517 113.649C165.771 113.719 165.043 113.79 164.298 113.861C161.226 114.161 158.101 114.478 155.082 114.796C150.43 115.29 145.618 115.784 140.877 116.19C140.327 116.243 139.776 116.279 139.226 116.332C139.261 116.438 139.315 116.543 139.35 116.649C142.742 124.945 146.684 132.958 151.744 140.389C153.662 143.195 153.502 145.048 151.318 147.696C150.057 149.231 148.672 150.679 147.429 152.232C146.115 153.873 144.535 154.915 142.404 155.144C141.41 155.25 140.451 155.585 139.475 155.709C134.307 156.397 132.869 159.133 131.893 163.634C131.378 166.034 132.834 167.817 135.32 167.94C137.876 168.046 140.451 167.958 143.026 167.958C143.026 167.888 143.026 167.835 143.026 167.764C144.872 167.764 146.755 167.623 148.583 167.799C150.608 168.011 152.117 167.446 153.502 165.964C156.911 162.345 160.338 158.709 163.96 155.303C167.902 151.614 171.88 147.925 176.23 144.748C178.733 142.913 179.87 140.953 179.799 138.041C179.71 134.494 179.728 130.946 179.586 127.398C179.373 122.368 179.799 117.408 180.9 112.537C180.331 112.537 179.71 112.572 179.053 112.607C174.88 112.784 170.619 113.208 166.499 113.614L166.517 113.649Z" fill="#FAF9E0"/>
<path d="M53.9254 108.177C47.3734 104.1 41.3541 99.3699 35.9385 94.0043C35.9917 97.7814 34.8376 101.206 32.6891 104.294C31.9611 105.336 31.1976 106.377 30.4696 107.418C25.7997 114.037 21.0233 120.568 16.531 127.292C12.9798 132.605 9.53506 137.988 5.23807 142.771C2.2728 146.054 0.781279 149.937 0.106545 154.244C-0.550432 158.533 1.81114 161.551 5.23807 161.604C9.0734 161.498 11.8256 160.739 13.4414 158.039C14.5245 156.238 15.6077 154.279 15.9628 152.267C16.5487 149.09 18.2533 146.902 20.5794 144.907C27.0781 139.347 33.7367 133.893 41.4961 130.24C46.8585 127.716 50.3209 123.992 53.0731 118.979C54.6534 116.102 56.5356 113.49 58.7374 111.16C57.4589 110.366 56.1805 109.572 54.9198 108.777L53.9077 108.142L53.9254 108.177Z" fill="#FAF9E0"/>
<path d="M63.7801 18.8504C63.3362 25.1162 63.3539 30.4112 61.1166 35.3179C60.0513 37.6654 61.5783 39.7304 62.04 41.8837C62.1465 42.3426 63.4427 42.8721 64.1707 42.8368C67.7219 42.7133 71.3442 42.7662 74.8066 42.0955C80.2578 41.0365 85.6024 39.4657 90.9825 38.1066C106.448 34.1883 122.074 32.4762 138.036 33.8883C144.73 34.4884 151.424 35.0708 157.905 36.7476C167.174 39.1303 176.248 42.1308 184.256 47.5847C185.534 48.4496 186.812 48.8202 188.268 48.5202C198.354 46.4904 207.427 49.4733 216.217 54.0093C219.626 55.7743 223.106 57.4511 226.568 59.0926C232.428 61.8636 238.625 62.4637 244.964 61.44C250.166 60.6105 254.25 58.0689 256.86 53.3563C262.684 42.8721 261.939 28.805 254.215 19.7858C249.101 13.8025 240.489 12.214 233.618 15.9734C228.895 18.568 226.267 22.5569 225.876 27.9402C225.805 28.9286 225.876 29.9346 225.769 30.923C225.592 32.5469 224.491 33.4117 223.017 33.8177C221.703 34.1883 220.265 33.5176 219.573 31.9644C219.075 30.8348 218.827 29.5287 218.72 28.2932C218.081 20.0506 224.935 11.508 231.38 8.61335C244.218 2.80647 258.476 7.73084 264.797 20.2977C265.312 21.3037 265.81 22.3275 266.289 23.3688C272.397 36.5358 270.746 49.1556 262.933 60.9458C256.878 70.0533 247.947 74.1834 236.903 73.495C235.642 73.4244 234.346 73.1597 233.156 72.7184C229.427 71.3064 225.698 69.8768 222.058 68.2706C219.058 66.9468 216.181 65.376 213.251 63.911C210.02 62.2872 206.575 61.4047 202.988 61.14C201.745 61.0517 200.467 61.3341 199.206 61.493C198.496 61.5812 198.212 62.0225 198.567 62.6755C198.975 63.4168 199.473 64.1228 199.97 64.8112C204.799 71.6594 209.895 78.3488 214.423 85.3912C225.965 103.306 237.417 121.291 248.568 139.436C251.889 144.837 254.197 150.891 256.718 156.75C258.707 161.375 256.328 165.293 253.913 169.017C253.434 169.741 252.315 170.253 251.392 170.482C247.361 171.418 243.295 172.212 239.122 172.018C235.997 171.877 234.239 170.57 233.689 167.605C233.085 164.411 232.464 161.057 235.589 158.586C236.37 157.968 236.53 157.28 236.068 156.362C231.842 147.908 226.16 140.812 217.602 136.294C214.707 134.776 211.866 133.135 208.937 131.652C201.55 127.91 195.548 122.545 190.346 116.226C189.902 115.679 189.44 115.132 188.996 114.567C185.161 109.801 185.161 109.678 178.946 109.942C173.975 110.154 169.003 110.701 164.031 111.178C156.236 111.937 148.441 112.855 140.646 113.508C136.119 113.896 131.52 114.249 126.992 114.037C119.872 113.72 112.787 112.837 105.791 111.407C105.099 111.266 104.406 111.09 103.696 111.037C102.098 110.896 101.654 111.443 102.098 113.066C102.435 114.302 102.826 115.52 103.341 116.685C104.566 119.544 104.708 122.421 103.962 125.422C102.826 129.958 101.636 134.494 100.748 139.083C100.216 141.836 99.8428 144.731 100.074 147.502C100.375 151.032 99.8073 154.262 98.4756 157.456C97.8186 159.027 97.0551 160.563 96.4514 162.151C95.386 164.958 93.3263 166.44 90.4676 167.005C87.378 167.623 84.3062 168.099 81.1456 167.464C79.6186 167.164 78.0205 167.129 76.458 167.182C74.7534 167.235 73.4572 166.158 73.546 163.81C73.688 159.751 76.1028 156.927 80.169 156.009C80.7194 155.886 81.3054 155.868 81.8736 155.833C82.9567 155.744 83.3118 155.056 83.3296 154.103C83.3651 151.544 83.5782 148.984 83.3651 146.443C83.01 142.207 82.4773 137.988 81.8026 133.805C81.1811 129.975 79.583 126.498 77.2037 123.392C74.1674 119.421 70.776 115.785 66.5855 112.978C62.91 110.525 59.1635 108.213 55.3992 105.883C43.2362 98.3287 33.1862 88.5858 25.196 76.7779C23.2961 73.9716 21.8223 70.8475 20.4196 67.7588C19.3542 65.3936 18.1645 63.2756 16.0515 61.6165C12.1097 58.5101 10.0145 54.0976 8.32762 49.5615C6.6763 45.1314 7.58186 40.5953 8.54069 36.1298C8.68274 35.4415 8.87806 34.7355 9.19767 34.1001C10.849 30.6759 10.9555 27.0753 10.9378 23.3335C10.9378 16.6441 12.0387 10.0607 13.832 3.61837C15.0039 -0.599995 16.7973 -1.0236 20.171 1.92397C23.74 5.03038 26.8118 8.61335 29.1023 12.7258C30.3452 14.9321 31.8013 15.6204 34.2338 15.4086C38.1402 15.0733 41.9578 15.4969 45.1894 18.0738C46.3258 18.9916 47.1958 18.7268 48.0659 17.6325C50.2854 14.8438 52.7357 12.2669 55.8076 10.3431C56.7664 9.74295 57.7607 9.10755 58.8083 8.75455C60.9568 8.03089 62.6082 8.8075 62.9988 11.0491C63.496 13.9613 63.6025 16.9618 63.7801 18.8857V18.8504Z" fill="#FAF9E0"/>
</g>
<defs>
<clipPath id="clip0_2_366">
<rect width="270" height="172" fill="white"/>
</clipPath>
</defs>
</svg>
