<svg width="150" height="120" viewBox="0 0 150 120" fill="none" xmlns="http://www.w3.org/2000/svg">
<g clip-path="url(#clip0_2_364)">
<path d="M55.2822 25.7466C61.0227 26.1965 66.5896 26.6066 72.1298 27.0961C76.3083 27.4666 80.4735 27.6254 84.6654 27.2417C85.3062 27.1888 85.9337 27.03 86.5478 26.8712C88.35 26.4082 88.2165 26.3817 88.5369 24.5427C89.0442 21.632 88.5636 18.9991 87.4288 16.234C86.1873 13.2174 85.5332 9.93627 84.8523 6.72128C84.2249 3.70474 85.6266 2.514 88.6837 3.32106C92.0079 4.19426 95.2119 5.39823 98.2022 7.11819C99.0433 7.59448 99.8977 8.04432 100.685 8.6C101.673 9.30121 102.581 9.27475 103.649 8.71907C108.495 6.19206 113.528 6.07299 118.574 8.00463C120.016 8.56031 120.897 8.25601 121.965 7.26372C123.914 5.45115 125.997 3.75766 128.119 2.13032C129.121 1.36295 130.282 0.727892 131.457 0.264827C132.939 -0.330543 133.967 0.185444 134.487 1.68048C134.754 2.46108 134.901 3.34752 134.861 4.1678C134.648 7.76648 134.341 11.3652 134.06 14.9638C134.034 15.2814 133.913 15.5857 133.86 15.9032C133.219 19.277 133.099 22.5052 134.568 25.8392C136.276 29.729 135.969 33.7643 133.646 37.4556C132.952 38.5669 132.952 39.6254 133.192 40.8029C134.341 46.3332 135.903 51.718 137.985 56.9837C139.974 62.0245 141.616 67.1976 143.298 72.3574C144.34 75.5195 145.741 78.4434 147.677 81.1821C156.128 94.611 139.04 95.6298 135.409 88.7103C134.674 87.2946 133.7 85.998 133.046 84.5427C132.138 82.5449 130.603 82.0421 128.613 82.3332C128.079 82.4126 127.559 82.4919 127.038 82.611C125.676 82.9418 125.65 83.1138 126.477 84.2251C127.172 85.1513 127.973 86.0906 128.36 87.1491C132.391 91.9914 124.822 100.499 110.831 91.4886C107.707 90.073 101.032 83.9473 99.4705 83.8944C92.1948 83.6165 87.3221 84.966 75.4139 84.966C71.9963 84.7676 68.5654 84.5427 65.1478 84.2648C62.2642 84.0267 59.394 83.6562 56.5104 83.4445C53.52 83.2196 50.5296 83.0741 47.5392 82.9682C42.7199 82.8095 37.9006 82.9418 33.148 81.7775C25.7387 79.9649 19.2774 76.7367 14.7651 70.3729C14.5782 70.1083 14.3779 69.8569 14.1376 69.6452C13.6971 69.2615 13.35 69.4335 13.1631 69.9098C11.0939 75.4401 10.0659 81.0234 12.8427 86.6066C14.725 90.3905 17.7688 92.7191 22.1209 93.0895C26.1926 93.4335 30.2911 93.5129 34.3094 92.8117C39.9431 91.8194 45.6035 91.5019 51.2905 91.8062C56.7907 92.084 62.1307 93.3277 67.1236 95.6959C71.7961 97.9054 75.2804 101.557 78.1239 105.738C79.766 108.146 80.4468 110.977 80.3133 113.941C80.2332 115.608 79.6191 117.037 78.4844 118.254C76.4819 120.41 73.625 120.688 71.2754 118.876C70.688 118.426 70.154 117.87 69.7001 117.288C67.5775 114.483 65.2946 111.771 63.439 108.794C60.9693 104.825 57.2713 103.052 52.9459 102.139C47.606 101.001 42.2927 101.451 36.9794 102.43C33.188 103.131 29.45 104.031 25.5518 104.11C18.9703 104.256 13.4034 101.888 8.43722 97.8525C0.854448 91.5945 -1.14804 83.471 0.587448 74.2494C1.58869 68.9572 3.67129 64.0752 7.38257 60.0135C7.95662 59.3784 8.42387 58.6639 8.99791 58.0289C9.66541 57.2747 9.89236 56.4148 9.98581 55.4225C10.1727 53.4247 10.413 51.4004 10.8669 49.4423C12.0818 44.1105 15.2457 39.9826 19.5444 36.7676C26.7667 31.3431 34.9369 27.9297 43.9214 26.686C47.7261 26.1568 51.5976 26.0377 55.2955 25.7466H55.2822Z" fill="#FAF9E0"/>
</g>
<defs>
<clipPath id="clip0_2_364">
<rect width="150" height="120" fill="white"/>
</clipPath>
</defs>
</svg>
