<svg width="141" height="134" viewBox="0 0 141 134" fill="none" xmlns="http://www.w3.org/2000/svg">
<g clip-path="url(#clip0_2_598)">
<path d="M83.0273 92.8167C83.0957 93.7331 83.1367 94.6631 83.1367 95.5795C83.1367 98.3151 82.8085 101.051 82.6307 103.786C82.4529 105.66 82.4392 107.506 83.2598 109.271C84.3812 111.705 84.6684 114.318 84.7231 116.971C84.7642 119.488 84.9966 122.005 85.065 124.535C85.1061 126.327 85.8309 127.777 87.2395 128.762C88.484 129.623 89.838 130.417 91.2603 130.882C93.4211 131.579 95.6366 131.224 97.688 130.348C99.7804 129.445 100.163 127.914 98.7547 126.176C98.1393 125.424 97.4418 124.576 96.5803 124.193C94.228 123.154 93.8177 121.321 94.0228 119.078C94.0775 118.531 93.9955 117.97 94.0639 117.436C94.5015 113.224 94.8571 108.984 95.3768 104.785C91.78 99.8606 87.1985 96.0035 83.0273 92.8303V92.8167Z" fill="#FDF2EB"/>
<path d="M48.2628 82.531C48.0029 82.531 47.7705 82.531 47.5653 82.531C47.2644 82.531 47.0593 82.531 46.9225 82.5447C46.7858 82.8456 46.608 83.3927 46.4302 83.8714L46.3208 84.1723C44.7344 88.7133 42.1496 93.0491 38.1835 97.7816C36.7339 99.5187 35.3253 101.105 33.9303 102.569C33.9713 104.374 34.5731 106.07 35.9133 107.643C39.1819 111.5 42.3821 115.412 45.5823 119.324C46.7037 120.705 48.0987 121.403 49.8766 121.348C50.4236 121.335 50.9706 121.348 51.5314 121.348C51.5314 121.376 51.5314 121.417 51.5314 121.444C52.7349 121.335 53.9794 121.376 55.1145 121.047C55.8803 120.828 56.7693 120.227 57.1249 119.543C58.2873 117.313 56.7146 114.154 54.2119 113.497C53.5828 113.333 52.899 113.265 52.2562 113.319C50.8886 113.429 49.986 112.772 49.2064 111.746C47.4012 109.367 46.0199 106.768 44.9122 103.991C43.7497 101.064 44.1737 98.3834 45.9105 95.8667C46.5259 94.964 47.2371 94.116 47.9072 93.2543C48.9192 91.9549 49.8766 90.6008 50.9706 89.3698C52.4887 87.6601 52.899 85.5127 53.4597 83.4201C53.0357 83.2833 52.6118 83.1465 52.1878 83.0234C50.9706 82.6404 49.521 82.572 48.2491 82.5447L48.2628 82.531Z" fill="#FDF2EB"/>
<path d="M60.284 19.4223C53.3366 19.2171 46.9909 16.974 40.9734 13.5682C38.6758 12.2688 36.4193 10.8737 34.026 9.80687C26.7367 6.56526 16.4796 9.23241 11.652 15.5378C9.55955 18.2733 8.78001 21.3371 9.31338 24.8249C9.76469 27.793 10.5579 30.5969 11.8845 33.2914C12.4999 34.5361 13.3888 35.4251 14.6197 36.0269C15.7958 36.6014 16.7258 36.5467 17.9293 35.7534C22.839 32.4844 28.1316 30.0635 34.1764 30.1182C39.4554 30.1592 44.6933 30.761 49.8628 31.91C58.3283 33.7975 66.8348 35.5482 75.4644 36.533C79.8271 37.0254 84.2171 37.3947 88.6071 37.4494C92.7919 37.5041 96.8811 36.5467 100.847 35.1789C102.707 34.5361 103.842 33.565 103.705 31.3902C103.637 30.2003 103.965 28.9966 104.116 27.8067C104.43 25.1669 104.362 22.6092 103.336 20.0514C101.763 16.1533 101.107 12.0226 101.121 7.79625C101.121 4.93762 102.16 4.22639 104.786 5.34795C105.688 5.73093 106.523 6.30539 107.289 6.90721C110.27 9.19137 113.032 11.6944 114.974 14.977C115.508 15.8797 116.096 16.1807 117.122 15.7293C120.144 14.3889 123.262 14.0743 126.435 15.1822C127.461 15.5378 128.062 15.2643 128.582 14.3478C130.688 10.6275 133.642 7.72786 137.225 5.45737C138.114 4.89659 138.976 3.7887 140.125 4.37684C141.287 4.96498 140.904 6.29171 140.959 7.35857C141.178 11.585 140.685 15.6746 138.839 19.5727C138.429 20.4207 138.265 21.4876 138.292 22.4313C138.347 24.948 138.579 27.4647 138.702 29.9814C138.812 32.2793 138.88 34.5497 138.402 36.8613C137.198 42.7427 133.451 46.2168 128.117 48.3095C127.611 48.5146 127.078 48.6788 126.544 48.8019C125.669 49.007 125.245 49.5541 125.19 50.4295C125.163 50.8672 125.136 51.3049 125.136 51.7426C125.081 59.4431 122.373 66.3503 118.681 72.9429C116.807 76.294 114.838 79.6176 112.691 82.7908C110.256 86.3744 109.791 90.3135 110.078 94.4305C110.42 99.3955 111.473 104.183 113.347 108.819C114.537 111.774 115.439 114.838 116.479 117.847C116.944 119.201 117.436 120.527 117.901 121.882C118.394 123.359 119.378 124.261 120.896 124.631C121.963 124.891 123.03 125.164 124.055 125.547C125.902 126.217 126.531 127.366 126.49 129.733C126.449 131.661 125.929 132.4 123.905 133.029C121.375 133.822 118.763 134.178 116.096 133.973C113.976 133.808 112.321 132.906 111.46 130.84C110.831 129.322 110.078 127.845 109.463 126.327C106.577 119.16 102.816 112.471 98.741 105.933C94.8844 99.7648 89.537 95.0734 83.8068 90.7512C82.5212 89.7801 81.0716 89.3698 79.5125 89.233C74.4113 88.8227 69.6794 87.154 64.9749 85.2391C61.0225 83.6252 56.9334 82.2984 52.8579 80.9991C51.4219 80.5477 49.8355 80.452 48.3175 80.4246C45.3224 80.3836 45.3908 80.4656 44.3377 83.4884C42.6419 88.3303 39.8383 92.5293 36.5834 96.4275C34.4773 98.9578 32.2481 101.406 29.8685 103.677C27.2153 106.221 26.3674 109.038 27.3111 112.608C28.0769 115.535 29.3214 118.175 31.0036 120.651C31.9883 122.1 33.0276 123.537 33.9303 125.027C34.6414 126.204 34.4089 127.079 33.2601 127.831C32.7131 128.187 32.0977 128.556 31.4822 128.625C29.1847 128.871 26.8734 128.844 24.6305 128.105C23.2903 127.667 22.333 126.833 21.9227 125.465C21.7039 124.727 21.4577 123.988 21.3483 123.236C20.6645 118.216 19.3789 113.333 17.8472 108.505C16.7942 105.195 16.6164 101.899 17.0403 98.4381C17.5464 94.4168 17.7378 90.3409 17.8336 86.2923C17.8883 84.0081 17.5327 81.6966 17.2045 79.4261C16.9036 77.3335 15.9326 75.487 14.7975 73.6952C13.1974 71.1922 11.611 68.6892 10.2023 66.0904C7.31668 60.7698 7.38506 55.1483 8.78001 49.4447C8.88942 49.0207 8.98515 48.583 9.19029 48.1864C10.3528 45.8612 10.5169 43.7958 7.76798 42.4554C1.17613 35.4525 -1.55908 27.41 0.875259 17.9177C1.12143 16.9603 1.477 16.0439 1.79155 15.1001C4.25324 7.46799 9.75101 3.15953 17.2728 1.28569C27.1606 -1.18997 36.6791 -0.136787 45.678 4.80085C49.6851 6.98927 53.952 8.32968 58.5198 8.64427C59.5045 8.71266 60.5028 8.69898 61.4875 8.69898C63.8261 8.69898 65.7544 7.82361 67.2861 6.04551C68.0793 5.12911 68.8315 4.17167 69.7068 3.35102C72.8386 0.410319 76.7636 1.18995 78.6099 5.08808C80.1143 8.26129 79.2937 11.1062 77.2833 13.6913C75.6832 15.7566 73.495 16.9876 71.0334 17.7809C67.546 18.9162 63.9492 19.2718 60.284 19.4086V19.4223Z" fill="#FDF2EB"/>
</g>
<defs>
<clipPath id="clip0_2_598">
<rect width="141" height="134" fill="white"/>
</clipPath>
</defs>
</svg>
