<svg width="145" height="48" viewBox="0 0 145 48" fill="none" xmlns="http://www.w3.org/2000/svg">
<g clip-path="url(#clip0_78_199)">
<path d="M50.5 16.5L34 7.5C38 5.66667 46.8 2 50 2C53.2 2 51.6667 11.6667 50.5 16.5Z" fill="#FDF2EB"/>
<path d="M53.1948 15.8789C54.1741 11.3115 55.3484 1.22028 49.2738 0.183623C44.9933 -0.547011 36.1798 0.853053 33.7737 5.17183C31.9452 4.50622 30.0058 3.94773 28.1352 3.95155C26.2646 3.94773 24.3252 4.50622 22.4967 5.17183C20.0905 0.853053 11.2809 -0.547011 7.00033 0.183623C0.921914 1.22028 2.10011 11.3115 3.07939 15.8789C-1.66782 21.6742 0.394022 30.0593 0.749775 37.5913C1.14761 45.9955 5.69208 48.635 13.7673 47.8738C18.2429 47.453 22.7071 45.3758 22.7185 40.4641C22.7185 39.0679 22.6918 26.9876 22.5885 26.9991C24.4361 26.9876 26.2875 27.0067 28.1352 27.0373C29.9828 27.0067 31.8343 26.9876 33.6819 26.9991C33.5786 26.9876 33.548 39.0679 33.5518 40.4641C33.5633 45.3758 38.0274 47.453 42.5069 47.8738C50.5821 48.6312 55.1227 45.9955 55.5244 37.5913C55.884 30.0555 57.942 21.6742 53.1986 15.8789H53.1948ZM42.3386 5.27129C44.2665 4.75869 46.271 4.42972 48.2678 4.5024C49.8668 4.5636 49.6066 9.39497 49.2126 12.5968C45.6627 10.4087 41.9292 8.48455 38.0772 6.88174C38.4635 6.70578 39.087 6.32325 39.2936 6.23909C40.2767 5.82978 41.3095 5.54288 42.3386 5.27129ZM8.00639 4.5024C9.97643 4.31496 12.0383 4.80842 13.9356 5.27129C14.9723 5.52376 15.9822 5.86038 16.9806 6.23909C17.1871 6.3156 17.8107 6.70195 18.197 6.88174C14.3373 8.48455 10.5961 10.4125 7.04624 12.6044C6.64075 9.42557 6.36916 4.65924 8.00639 4.5024ZM51.8598 26.3028C51.5805 30.6905 51.7335 35.5792 50.869 39.8827C49.9853 44.2627 45.6436 44.2091 41.8183 43.314C40.2423 42.9429 37.9968 42.0402 37.993 41.1986C37.9892 38.7236 37.9815 36.2487 37.9777 33.7699C37.9662 29.738 39.2133 23.8776 34.4967 22.7185C34.2557 22.6267 33.9917 22.5655 33.6857 22.5617C32.0255 22.5502 30.109 22.4163 28.139 22.3322C26.169 22.4163 24.2525 22.5502 22.5923 22.5617C22.2863 22.5617 22.0223 22.6267 21.7813 22.7185C17.0647 23.8738 18.3118 29.738 18.3003 33.7699C18.2965 36.2448 18.2888 38.7198 18.285 41.1986C18.285 42.0402 16.0395 42.9429 14.4597 43.314C10.6344 44.2091 6.29265 44.2627 5.409 39.8827C4.54066 35.5792 4.6975 30.6905 4.41825 26.3028C4.04719 20.4692 6.80907 17.8145 11.5601 15.0641C15.4963 12.7842 19.6774 10.8677 23.9809 9.39497C25.4269 8.89768 26.804 8.71789 28.139 8.75997C29.474 8.72172 30.8511 8.90151 32.2971 9.39497C36.5968 10.8677 40.7817 12.7842 44.7179 15.0641C49.4689 17.8145 52.2308 20.4692 51.8598 26.3028Z" fill="#FA863E"/>
<path d="M12.2104 33.6704C11.0514 33.6704 10.1104 34.6114 10.1104 35.7705C10.1104 36.9296 11.0514 37.8706 12.2104 37.8706C13.3695 37.8706 14.3105 36.9296 14.3105 35.7705C14.3105 34.6114 13.3695 33.6704 12.2104 33.6704Z" fill="#483C34"/>
<path d="M44.0637 33.6704C42.9047 33.6704 41.9636 34.6114 41.9636 35.7705C41.9636 36.9296 42.9047 37.8706 44.0637 37.8706C45.2228 37.8706 46.1638 36.9296 46.1638 35.7705C46.1638 34.6114 45.2228 33.6704 44.0637 33.6704Z" fill="#483C34"/>
<path fill-rule="evenodd" clip-rule="evenodd" d="M30.1473 36.3389C30.2173 35.709 29.7634 35.1416 29.1334 35.0716C28.5035 35.0016 27.9361 35.4555 27.8661 36.0854C27.8198 36.5023 27.6866 37.0307 27.4687 37.4893C27.2411 37.9682 26.9928 38.224 26.8031 38.3189C26.5122 38.4643 26.1824 38.5888 25.8567 38.6793C25.8077 38.6929 25.7331 38.7092 25.6337 38.731L25.6337 38.731C25.5631 38.7465 25.48 38.7647 25.3846 38.7867L25.3785 38.7881L25.3785 38.7881C25.3102 38.8038 25.1664 38.8368 25.0533 38.8781L25.0509 38.879C25.0261 38.888 24.9184 38.9271 24.8023 39.0025L24.8002 39.0039C24.757 39.0319 24.5638 39.1572 24.4243 39.4042C24.3409 39.5518 24.2544 39.7839 24.2801 40.072C24.3065 40.3678 24.4397 40.595 24.5748 40.7435C24.7926 40.9831 25.0472 41.0579 25.1 41.0734L25.1031 41.0743C25.1922 41.1007 25.2661 41.1108 25.3015 41.1151C25.3767 41.1241 25.4409 41.1247 25.4723 41.1247C25.6564 41.1247 25.8303 41.0813 25.9845 41.0043L26.0263 40.9951L26.0263 40.9951C26.1687 40.9636 26.3631 40.9207 26.4709 40.8907C26.9259 40.7644 27.3952 40.5889 27.8296 40.3718C27.8678 40.3527 27.9054 40.3328 27.9424 40.3122C28.2014 40.5593 28.4922 40.7766 28.8043 40.9511C29.4966 41.3382 30.3921 41.5638 31.3134 41.2908C31.3072 41.2927 31.3079 41.2925 31.3398 41.2861L31.3398 41.2861L31.4413 41.2659C31.5353 41.2473 31.6812 41.2179 31.831 41.1749C31.9713 41.1346 32.1864 41.063 32.3951 40.9306C32.6013 40.7998 32.9339 40.5224 33.0424 40.0339C33.114 39.7119 33.1099 39.149 32.6299 38.7424C32.2501 38.4207 31.8203 38.4277 31.6627 38.4388C31.4633 38.4529 31.2756 38.5054 31.1217 38.5747C31.0591 38.6029 30.9116 38.6732 30.7677 38.8069C30.723 38.8484 30.6183 38.9501 30.5305 39.1133C30.3711 39.1245 30.1664 39.0831 29.9243 38.9477C29.7626 38.8573 29.6103 38.738 29.4782 38.6038C29.5002 38.5604 29.5213 38.5172 29.5417 38.4744C29.881 37.7603 30.076 36.9806 30.1473 36.3389ZM25.4723 38.8295L25.4725 38.8295L25.4773 38.8295L25.4723 38.8295Z" fill="#483C34"/>
</g>
<path d="M70.0142 16.64L71.3342 17.52C70.8742 18.32 70.2742 19.18 69.5942 20.02C70.6742 22.2 70.8742 24.5 70.8742 26.9C70.8742 29.68 70.6542 32.24 69.8542 33.4C69.5942 33.8 69.2142 34.02 68.7142 34.12C68.0342 34.28 67.2142 34.28 66.3142 34.24C66.3142 33.66 66.1342 32.96 65.7942 32.44C66.7742 32.52 67.5342 32.5 67.9542 32.46C68.2542 32.42 68.4342 32.32 68.5942 32.1C69.0142 31.48 69.1942 29.34 69.1942 26.86V26.38C68.2942 27.74 67.1742 28.98 66.1142 29.82C65.8942 29.36 65.4742 28.66 65.0942 28.26C66.5542 27.32 68.0942 25.46 68.9742 23.68C68.8542 22.9 68.6742 22.16 68.3742 21.44C67.5942 22.28 66.7542 23.04 65.9942 23.62C65.7742 23.16 65.3342 22.38 64.9942 21.96C65.8142 21.46 66.7142 20.7 67.5542 19.84C67.0542 19.08 66.4142 18.34 65.6142 17.64L66.8342 16.64C67.5742 17.26 68.1742 17.92 68.6742 18.58C69.1942 17.92 69.6542 17.26 70.0142 16.64ZM73.6342 22.24V20.38H71.2942V18.68H73.6342V16.22H75.4742V18.68H76.9142V20.38H75.4742V22.24H73.6342ZM76.5542 24.8H73.9542V27.46H76.5542V24.8ZM80.8942 27.46V24.8H78.2142V27.46H80.8942ZM78.2142 31.9H80.8942V29.06H78.2142V31.9ZM73.9542 29.06V31.9H76.5542V29.06H73.9542ZM72.2542 34.56V23.16H82.6742V34.44H80.8942V33.54H73.9542V34.56H72.2542ZM81.0142 18.64H83.4742V20.34H81.0142V22.24H79.1742V20.34H77.6542V18.64H79.1742V16.2H81.0142V18.64ZM102.594 25.98C102.594 30.18 99.9142 33.06 95.0542 33.76L93.8742 31.88C94.5542 31.82 95.1542 31.72 95.6542 31.6C98.2142 31.02 100.494 29.14 100.494 25.92C100.494 23.02 98.7342 20.72 95.6542 20.34C95.3742 22.14 95.0342 24.08 94.4542 25.96C93.2542 30.04 91.5942 32.3 89.6142 32.3C87.6342 32.3 85.8142 30.1 85.8142 26.76C85.8142 22.28 89.7342 18.44 94.7542 18.44C99.5542 18.44 102.594 21.8 102.594 25.98ZM87.8342 26.56C87.8342 28.86 88.8142 29.92 89.6742 29.92C90.5742 29.92 91.5142 28.62 92.4342 25.54C92.9342 23.96 93.2942 22.14 93.5342 20.38C89.9342 20.96 87.8342 24.08 87.8342 26.56ZM110.834 26.06H116.534C116.974 25.26 117.474 24.24 117.754 23.48H110.874C111.334 24.2 111.794 25.12 111.954 25.7L110.834 26.06ZM123.254 21.84V23.48H118.114L119.794 23.9C119.354 24.64 118.854 25.4 118.414 26.06H121.774V27.68H115.174V29.74H122.714V31.38H115.174V34.6H113.254V31.38H105.854V29.74H113.254V27.68H106.934V26.06H110.034C109.834 25.42 109.394 24.56 109.014 23.88L110.334 23.48H105.334V21.84H113.254V19.86H107.394V18.24H113.254V16.28H115.174V18.24H121.234V19.86H115.174V21.84H123.254ZM139.294 17.46C139.234 17.78 139.194 18.56 139.194 19.04C139.174 19.9 139.174 20.76 139.154 21.56C139.834 21.5 140.494 21.46 141.054 21.42C141.574 21.4 142.254 21.34 142.774 21.3V23.26C142.434 23.24 141.554 23.26 141.034 23.28C140.514 23.28 139.854 23.32 139.114 23.36C139.074 24.88 138.994 26.58 138.814 27.48C138.614 28.44 138.154 28.7 137.194 28.7C136.474 28.7 134.994 28.5 134.394 28.4L134.434 26.66C135.094 26.8 135.934 26.92 136.354 26.92C136.814 26.92 137.014 26.84 137.054 26.4C137.154 25.8 137.214 24.64 137.254 23.5C135.314 23.66 133.134 23.86 131.274 24.06C131.254 26.02 131.234 28 131.274 28.82C131.334 30.88 131.414 31.52 134.674 31.52C136.754 31.52 139.254 31.28 140.634 31.02L140.574 33.16C139.234 33.32 136.774 33.5 134.794 33.5C129.934 33.5 129.414 32.42 129.334 29.12C129.314 28.26 129.314 26.2 129.314 24.28C128.574 24.36 127.954 24.42 127.514 24.48C126.894 24.56 125.854 24.7 125.334 24.78L125.114 22.74C125.714 22.74 126.534 22.7 127.374 22.62C127.814 22.58 128.474 22.52 129.314 22.44C129.314 21.28 129.314 20.34 129.314 20C129.314 19.3 129.274 18.72 129.174 18.08H131.394C131.334 18.62 131.294 19.18 131.294 19.9C131.294 20.46 131.294 21.3 131.274 22.26C133.114 22.08 135.294 21.88 137.294 21.7C137.294 20.84 137.294 19.92 137.294 19.1C137.294 18.64 137.214 17.82 137.154 17.46H139.294Z" fill="#FA863E"/>
<defs>
<clipPath id="clip0_78_199">
<rect width="56.2741" height="48" fill="white"/>
</clipPath>
</defs>
</svg>
