<svg width="64" height="72" viewBox="0 0 64 72" fill="none" xmlns="http://www.w3.org/2000/svg">
<g clip-path="url(#clip0_78_284)">
<path d="M54.3629 16.5L37.8629 7.5C41.8629 5.66667 50.6629 2 53.8629 2C57.0629 2 55.5296 11.6667 54.3629 16.5Z" fill="#FDF2EB"/>
<path d="M57.0577 15.8789C58.037 11.3115 59.2113 1.22028 53.1368 0.183623C48.8562 -0.547011 40.0427 0.853053 37.6366 5.17183C35.8081 4.50622 33.8687 3.94773 31.9981 3.95155C30.1275 3.94773 28.1881 4.50622 26.3596 5.17183C23.9535 0.853053 15.1438 -0.547011 10.8632 0.183623C4.78483 1.22028 5.96303 11.3115 6.9423 15.8789C2.19509 21.6742 4.25694 30.0593 4.61269 37.5913C5.01052 45.9955 9.55499 48.635 17.6302 47.8738C22.1058 47.453 26.57 45.3758 26.5814 40.4641C26.5814 39.0679 26.5547 26.9876 26.4514 26.9991C28.299 26.9876 30.1505 27.0067 31.9981 27.0373C33.8457 27.0067 35.6972 26.9876 37.5448 26.9991C37.4415 26.9876 37.4109 39.0679 37.4147 40.4641C37.4262 45.3758 41.8903 47.453 46.3698 47.8738C54.445 48.6312 58.9857 45.9955 59.3873 37.5913C59.7469 30.0555 61.8049 21.6742 57.0615 15.8789H57.0577ZM46.2015 5.27129C48.1294 4.75869 50.1339 4.42972 52.1307 4.5024C53.7297 4.5636 53.4696 9.39497 53.0756 12.5968C49.5257 10.4087 45.7922 8.48455 41.9401 6.88174C42.3264 6.70578 42.95 6.32325 43.1565 6.23909C44.1396 5.82978 45.1725 5.54288 46.2015 5.27129ZM11.8693 4.5024C13.8393 4.31496 15.9012 4.80842 17.7985 5.27129C18.8352 5.52376 19.8451 5.86038 20.8435 6.23909C21.0501 6.3156 21.6736 6.70195 22.0599 6.88174C18.2002 8.48455 14.459 10.4125 10.9092 12.6044C10.5037 9.42557 10.2321 4.65924 11.8693 4.5024ZM55.7227 26.3028C55.4434 30.6905 55.5964 35.5792 54.7319 39.8827C53.8483 44.2627 49.5065 44.2091 45.6812 43.314C44.1052 42.9429 41.8597 42.0402 41.8559 41.1986C41.8521 38.7236 41.8444 36.2487 41.8406 33.7699C41.8291 29.738 43.0762 23.8776 38.3596 22.7185C38.1186 22.6267 37.8546 22.5655 37.5486 22.5617C35.8884 22.5502 33.9719 22.4163 32.0019 22.3322C30.0319 22.4163 28.1154 22.5502 26.4552 22.5617C26.1492 22.5617 25.8852 22.6267 25.6442 22.7185C20.9276 23.8738 22.1747 29.738 22.1632 33.7699C22.1594 36.2448 22.1517 38.7198 22.1479 41.1986C22.1479 42.0402 19.9025 42.9429 18.3226 43.314C14.4973 44.2091 10.1556 44.2627 9.27192 39.8827C8.40357 35.5792 8.56041 30.6905 8.28116 26.3028C7.91011 20.4692 10.672 17.8145 15.423 15.0641C19.3593 12.7842 23.5403 10.8677 27.8438 9.39497C29.2898 8.89768 30.6669 8.71789 32.0019 8.75997C33.3369 8.72172 34.7141 8.90151 36.16 9.39497C40.4597 10.8677 44.6446 12.7842 48.5808 15.0641C53.3318 17.8145 56.0937 20.4692 55.7227 26.3028Z" fill="#FA863E"/>
<path d="M16.0734 33.6704C14.9143 33.6704 13.9733 34.6114 13.9733 35.7705C13.9733 36.9296 14.9143 37.8706 16.0734 37.8706C17.2324 37.8706 18.1735 36.9296 18.1735 35.7705C18.1735 34.6114 17.2324 33.6704 16.0734 33.6704Z" fill="#483C34"/>
<path d="M47.9266 33.6704C46.7676 33.6704 45.8265 34.6114 45.8265 35.7705C45.8265 36.9296 46.7676 37.8706 47.9266 37.8706C49.0857 37.8706 50.0267 36.9296 50.0267 35.7705C50.0267 34.6114 49.0857 33.6704 47.9266 33.6704Z" fill="#483C34"/>
<path fill-rule="evenodd" clip-rule="evenodd" d="M34.0102 36.3388C34.0802 35.7088 33.6263 35.1414 32.9964 35.0715C32.3664 35.0015 31.7991 35.4554 31.7291 36.0853C31.6827 36.5022 31.5495 37.0306 31.3316 37.4892C31.104 37.968 30.8557 38.2239 30.666 38.3188C30.3751 38.4642 30.0453 38.5887 29.7196 38.6792C29.6706 38.6928 29.596 38.7091 29.4966 38.7309L29.4966 38.7309C29.426 38.7464 29.3429 38.7646 29.2475 38.7865L29.2414 38.788L29.2414 38.788C29.1731 38.8036 29.0293 38.8367 28.9162 38.878L28.9139 38.8789C28.889 38.8879 28.7813 38.927 28.6653 39.0024L28.6631 39.0038C28.6199 39.0318 28.4267 39.157 28.2872 39.4041C28.2038 39.5517 28.1173 39.7838 28.143 40.0718C28.1694 40.3677 28.3026 40.5949 28.4377 40.7434C28.6556 40.983 28.9101 41.0578 28.9629 41.0733L28.966 41.0742C29.0551 41.1006 29.129 41.1107 29.1644 41.115C29.2396 41.124 29.3038 41.1246 29.3352 41.1246C29.5193 41.1246 29.6932 41.0812 29.8474 41.0042L29.8892 40.995L29.8893 40.9949C30.0316 40.9635 30.226 40.9206 30.3339 40.8906C30.7888 40.7642 31.2581 40.5888 31.6925 40.3716C31.7307 40.3525 31.7683 40.3327 31.8053 40.3121C32.0643 40.5592 32.3551 40.7765 32.6672 40.9509C33.3595 41.338 34.2551 41.5637 35.1763 41.2907C35.1701 41.2925 35.1708 41.2924 35.2027 41.286L35.2027 41.286L35.3042 41.2657C35.3982 41.2471 35.5441 41.2178 35.694 41.1748C35.8342 41.1345 36.0493 41.0629 36.258 40.9305C36.4642 40.7996 36.7968 40.5223 36.9054 40.0338C36.9769 39.7118 36.9728 39.1489 36.4928 38.7423C36.1131 38.4206 35.6832 38.4276 35.5256 38.4387C35.3262 38.4528 35.1385 38.5053 34.9846 38.5746C34.922 38.6028 34.7745 38.6731 34.6306 38.8068C34.5859 38.8483 34.4812 38.95 34.3934 39.1132C34.234 39.1243 34.0293 39.083 33.7873 38.9476C33.6256 38.8572 33.4732 38.7379 33.3411 38.6037C33.3631 38.5603 33.3843 38.5171 33.4046 38.4743C33.744 37.7602 33.9389 36.9805 34.0102 36.3388ZM29.3352 38.8294L29.3354 38.8294L29.3402 38.8294L29.3352 38.8294Z" fill="#483C34"/>
</g>
<path d="M4.592 55.912L5.648 56.616C5.28 57.256 4.8 57.944 4.256 58.616C5.12 60.36 5.28 62.2 5.28 64.12C5.28 66.344 5.104 68.392 4.464 69.32C4.256 69.64 3.952 69.816 3.552 69.896C3.008 70.024 2.352 70.024 1.632 69.992C1.632 69.528 1.488 68.968 1.216 68.552C2 68.616 2.608 68.6 2.944 68.568C3.184 68.536 3.328 68.456 3.456 68.28C3.792 67.784 3.936 66.072 3.936 64.088V63.704C3.216 64.792 2.32 65.784 1.472 66.456C1.296 66.088 0.96 65.528 0.656 65.208C1.824 64.456 3.056 62.968 3.76 61.544C3.664 60.92 3.52 60.328 3.28 59.752C2.656 60.424 1.984 61.032 1.376 61.496C1.2 61.128 0.848 60.504 0.576 60.168C1.232 59.768 1.952 59.16 2.624 58.472C2.224 57.864 1.712 57.272 1.072 56.712L2.048 55.912C2.64 56.408 3.12 56.936 3.52 57.464C3.936 56.936 4.304 56.408 4.592 55.912ZM7.488 60.392V58.904H5.616V57.544H7.488V55.576H8.96V57.544H10.112V58.904H8.96V60.392H7.488ZM9.824 62.44H7.744V64.568H9.824V62.44ZM13.296 64.568V62.44H11.152V64.568H13.296ZM11.152 68.12H13.296V65.848H11.152V68.12ZM7.744 65.848V68.12H9.824V65.848H7.744ZM6.384 70.248V61.128H14.72V70.152H13.296V69.432H7.744V70.248H6.384ZM13.392 57.512H15.36V58.872H13.392V60.392H11.92V58.872H10.704V57.512H11.92V55.56H13.392V57.512ZM30.656 63.384C30.656 66.744 28.512 69.048 24.624 69.608L23.68 68.104C24.224 68.056 24.704 67.976 25.104 67.88C27.152 67.416 28.976 65.912 28.976 63.336C28.976 61.016 27.568 59.176 25.104 58.872C24.88 60.312 24.608 61.864 24.144 63.368C23.184 66.632 21.856 68.44 20.272 68.44C18.688 68.44 17.232 66.68 17.232 64.008C17.232 60.424 20.368 57.352 24.384 57.352C28.224 57.352 30.656 60.04 30.656 63.384ZM18.848 63.848C18.848 65.688 19.632 66.536 20.32 66.536C21.04 66.536 21.792 65.496 22.528 63.032C22.928 61.768 23.216 60.312 23.408 58.904C20.528 59.368 18.848 61.864 18.848 63.848ZM37.248 63.448H41.808C42.16 62.808 42.56 61.992 42.784 61.384H37.28C37.648 61.96 38.016 62.696 38.144 63.16L37.248 63.448ZM47.184 60.072V61.384H43.072L44.416 61.72C44.064 62.312 43.664 62.92 43.312 63.448H46V64.744H40.72V66.392H46.752V67.704H40.72V70.28H39.184V67.704H33.264V66.392H39.184V64.744H34.128V63.448H36.608C36.448 62.936 36.096 62.248 35.792 61.704L36.848 61.384H32.848V60.072H39.184V58.488H34.496V57.192H39.184V55.624H40.72V57.192H45.568V58.488H40.72V60.072H47.184ZM60.016 56.568C59.968 56.824 59.936 57.448 59.936 57.832C59.92 58.52 59.92 59.208 59.904 59.848C60.448 59.8 60.976 59.768 61.424 59.736C61.84 59.72 62.384 59.672 62.8 59.64V61.208C62.528 61.192 61.824 61.208 61.408 61.224C60.992 61.224 60.464 61.256 59.872 61.288C59.84 62.504 59.776 63.864 59.632 64.584C59.472 65.352 59.104 65.56 58.336 65.56C57.76 65.56 56.576 65.4 56.096 65.32L56.128 63.928C56.656 64.04 57.328 64.136 57.664 64.136C58.032 64.136 58.192 64.072 58.224 63.72C58.304 63.24 58.352 62.312 58.384 61.4C56.832 61.528 55.088 61.688 53.6 61.848C53.584 63.416 53.568 65 53.6 65.656C53.648 67.304 53.712 67.816 56.32 67.816C57.984 67.816 59.984 67.624 61.088 67.416L61.04 69.128C59.968 69.256 58 69.4 56.416 69.4C52.528 69.4 52.112 68.536 52.048 65.896C52.032 65.208 52.032 63.56 52.032 62.024C51.44 62.088 50.944 62.136 50.592 62.184C50.096 62.248 49.264 62.36 48.848 62.424L48.672 60.792C49.152 60.792 49.808 60.76 50.48 60.696C50.832 60.664 51.36 60.616 52.032 60.552C52.032 59.624 52.032 58.872 52.032 58.6C52.032 58.04 52 57.576 51.92 57.064H53.696C53.648 57.496 53.616 57.944 53.616 58.52C53.616 58.968 53.616 59.64 53.6 60.408C55.072 60.264 56.816 60.104 58.416 59.96C58.416 59.272 58.416 58.536 58.416 57.88C58.416 57.512 58.352 56.856 58.304 56.568H60.016Z" fill="#FA863E"/>
<defs>
<clipPath id="clip0_78_284">
<rect width="56.2741" height="48" fill="white" transform="translate(3.86292)"/>
</clipPath>
</defs>
</svg>
